<svg width="198" height="195" viewBox="0 0 198 195" fill="none" xmlns="http://www.w3.org/2000/svg">
<path d="M165.867 34.7993C167.607 34.1893 167.926 30.5422 166.582 26.6533C165.237 22.7644 162.738 20.1064 160.999 20.7164C159.259 21.3264 158.939 24.9735 160.284 28.8624C161.628 32.7513 164.128 35.4094 165.867 34.7993Z" fill="#5C191C"/>
<path d="M160.315 63.5655C163.782 61.3833 165.802 58.3391 164.826 56.766C163.85 55.1929 160.248 55.6867 156.781 57.8689C153.314 60.0511 151.295 63.0953 152.271 64.6684C153.246 66.2415 156.848 65.7477 160.315 63.5655Z" fill="#5C191C"/>
<path d="M172.957 50.0622C175.432 46.8787 176.264 43.3708 174.814 42.227C173.364 41.0832 170.182 42.7367 167.706 45.9202C165.231 49.1036 164.399 52.6116 165.849 53.7554C167.299 54.8992 170.481 53.2457 172.957 50.0622Z" fill="#5C191C"/>
<path d="M161.059 84.1173C164.25 81.5431 165.903 78.2826 164.752 76.8348C163.601 75.3869 160.081 76.3 156.89 78.8742C153.699 81.4483 152.045 84.7088 153.196 86.1567C154.348 87.6045 157.868 86.6915 161.059 84.1173Z" fill="#5C191C"/>
<path d="M39.0796 169C29.2096 169 19.8731 165.574 12.9374 159.327C5.20143 152.408 1 142.534 1 131.45H29.2096C29.2096 133.936 29.9432 142.131 39.0796 142.131C41.7472 142.131 44.2147 141.258 45.9486 139.713C48.016 137.899 49.0163 135.01 49.0163 131.249C49.0163 119.09 48.8163 104.85 48.6162 93.4302C48.5495 87.519 48.4161 82.4138 48.4161 78.6521C48.4161 72.002 48.3494 69.9868 49.5498 67.1655L75.6254 77.443C76.4923 75.495 76.6257 73.8157 76.6257 73.4798C76.559 75.1591 76.6257 84.2275 76.8258 93.0272C77.0259 104.581 77.2259 118.889 77.2259 131.249C77.2259 142.399 72.9578 152.341 65.2885 159.26C58.2861 165.507 49.0163 169 39.0796 169Z" fill="#5C191C"/>
<path d="M137.98 169C137.98 169 137.847 166.112 132.111 158.991C127.243 153.013 120.641 146.699 113.572 139.914C96.2991 123.389 79.9602 107.738 79.6934 88.8625L103.235 88.4594C103.235 88.7953 103.435 92.0868 109.57 99.6102C114.639 105.857 121.774 112.709 128.71 119.359C145.582 135.481 161.521 150.729 161.521 168.866H137.98V169Z" fill="#5C191C"/>
<path d="M84.6951 12.4194C103.368 12.4194 118.573 27.6677 118.573 46.5434V67.0984C118.573 71.3303 115.172 74.7561 110.971 74.7561H76.8925C67.0891 74.7561 59.1531 66.7625 59.1531 56.888V38.2139C59.1531 23.9732 70.6237 12.4194 84.7618 12.4194H84.6951Z" fill="#5E4290"/>
<path d="M64.6883 86.1084C55.4185 86.1084 47.8159 78.5178 47.8159 69.1136V25.451C47.8159 11.9492 58.6863 1 72.0908 1H99.9003C116.439 1 129.91 14.569 129.91 31.2279V49.8349C129.91 69.8525 113.772 86.1084 93.8983 86.1084H64.6883Z" fill="#5C191C"/>
<path d="M86.8959 66.0236L86.7625 65.8221C86.7625 65.8221 86.4957 65.3519 86.3624 65.0832C86.3624 64.9488 86.229 64.8145 86.1623 64.7473C84.6284 62.6649 84.8285 60.6497 86.6291 58.7689C87.3627 58.03 87.9629 57.2239 88.6298 56.3507C88.9632 55.9476 89.23 55.6118 89.5634 55.2087L89.8302 54.8728L90.1637 55.1415C91.5641 56.1491 92.6312 58.0972 92.8979 60.3139C93.1647 62.4634 92.6978 64.4114 91.6308 65.6877L91.4974 65.8221H91.2974C90.4304 65.9564 89.4968 65.9564 88.5631 65.9564C88.0296 65.9564 87.5628 65.9564 87.0292 65.9564H86.8292L86.8959 66.0236ZM90.0303 56.1491C90.0303 56.1491 89.6301 56.6865 89.3634 56.9552C88.6965 57.8285 88.0296 58.6345 87.296 59.3734C85.7622 60.9856 85.6955 62.4634 86.8959 64.2099C87.0293 64.3443 87.0959 64.5458 87.1626 64.7473C87.1626 64.8817 87.296 65.016 87.3627 65.0832C87.7628 65.0832 88.2297 65.0832 88.6298 65.0832C89.4301 65.0832 90.297 65.0832 91.0973 65.016C91.9643 63.8741 92.2977 62.2619 92.0309 60.4482C91.8309 58.7017 91.0306 57.0896 89.9636 56.2163L90.0303 56.1491Z" fill="#FAEDD0"/>
<path d="M86.6291 66.1579C84.9619 66.1579 83.1613 65.4862 81.294 64.2099C77.5594 61.6573 74.4917 57.0224 73.9582 53.2607C73.2913 48.3571 74.3583 43.5206 76.9592 39.5574C77.9595 38.0124 79.1599 36.5346 80.2936 35.0568C80.4937 34.7881 80.6938 34.5194 80.8939 34.2507C84.4951 29.5486 85.0953 28.1379 85.8289 22.2267L85.9622 20.9504L86.7625 21.8908C90.2971 26.0556 94.2984 30.7577 93.8316 37.6094C93.6982 39.1543 93.8316 40.4978 94.0983 41.6397C94.2317 42.11 94.8986 42.7817 95.4988 43.0504C95.7656 43.1847 96.099 43.1847 96.3658 43.0504C96.6992 42.916 96.966 42.5802 97.0993 42.1771C97.4328 41.2367 97.6329 40.2291 97.7663 39.2215C97.7663 38.9528 97.8329 38.6841 97.8996 38.3483C97.8996 38.0124 97.8996 37.6765 97.9663 37.2735C97.9663 37.0048 97.9663 36.7361 97.9663 36.4674V35.1911L98.9 36.1315C101.234 38.617 102.701 41.4382 103.435 45.1327C104.902 52.1859 102.301 58.7017 100.1 60.8513C99.967 60.9856 99.7669 61.1871 99.5669 61.3886C98.033 63.0008 95.0987 66.0908 90.2304 66.0908H89.5635L89.6968 65.419C89.6968 65.419 89.6968 65.016 91.8309 63.6054C92.4311 63.2023 93.6982 62.3291 93.8983 62.2619C96.5658 60.8513 98.4332 58.2315 99.2334 54.8728C99.8336 52.1187 99.7002 49.1631 98.7666 46.6777C98.7666 46.6777 98.6999 46.7449 98.6332 46.8121C97.2994 47.8868 95.8323 48.2899 94.3651 47.8868C92.9646 47.551 91.7642 46.409 91.164 44.7969C90.4304 42.9832 90.2304 40.9008 90.2304 39.5574C90.2304 37.3407 89.2967 35.5942 88.2297 33.9148C88.2297 33.982 88.0963 34.1163 88.0963 34.1835C87.6962 34.9896 87.296 35.7285 86.8292 36.4002C85.9622 37.6094 85.0286 38.8856 84.0949 40.0276C83.228 41.2367 82.2943 42.4458 81.3607 43.6549C78.0929 48.2227 77.3593 51.2455 78.4263 55.5446C79.0265 57.8285 80.5604 59.5078 82.0942 61.1871C82.5611 61.6573 82.9612 62.1275 83.428 62.6649C83.8949 63.2695 85.4287 63.8069 86.5624 64.2771C87.2293 64.5458 87.7628 64.7473 88.163 64.9488L89.3634 65.6205L88.0296 65.9564C87.5628 66.0908 87.1627 66.0908 86.6958 66.0908L86.6291 66.1579ZM99.1667 44.7297L99.5002 45.4686C102.168 51.3127 100.767 60.0452 94.4985 63.3367C94.2984 63.471 93.1647 64.2099 92.231 64.8816C95.5655 64.2771 97.6329 62.0604 98.9667 60.7169C99.1667 60.5154 99.3668 60.3139 99.5002 60.1795C101.234 58.5002 103.968 52.3874 102.501 45.4686C101.901 42.513 100.834 40.0948 99.1667 38.0796C99.1667 38.2811 99.1667 38.5498 99.1 38.7513C99.1 39.02 99.0333 39.2887 98.9667 39.5574C98.7666 40.6321 98.6332 41.7069 98.2331 42.7145C97.9663 43.3862 97.4995 43.9236 96.8993 44.1923C96.3658 44.461 95.6989 44.461 95.1654 44.1923C94.3651 43.8565 93.3648 42.9832 93.098 42.0428C92.7646 40.8337 92.6979 39.3559 92.8312 37.6765C93.2314 31.7653 90.097 27.6006 86.8292 23.7045C86.1623 28.8097 85.2953 30.489 81.8275 34.9896C81.6274 35.2583 81.4274 35.527 81.2273 35.7957C80.0936 37.2063 78.9599 38.6841 77.9595 40.2291C75.492 43.9908 74.4917 48.5586 75.1586 53.1935C75.6254 56.6865 78.5597 60.9184 82.0276 63.3367C82.6945 63.8069 83.4947 64.2771 84.4284 64.6129C83.6948 64.2771 83.0946 63.8741 82.6945 63.471C82.2943 63.0008 81.8942 62.5306 81.4274 62.0604C79.8935 60.381 78.1596 58.5002 77.4927 55.9476C76.2923 51.3127 77.1592 48.0212 80.6271 43.1175C81.494 41.9084 82.4277 40.6321 83.3614 39.4902C84.2283 38.2811 85.162 37.072 86.0956 35.8628C86.5624 35.2583 86.8959 34.5194 87.296 33.7805C87.4961 33.4446 87.6962 33.0416 87.8962 32.7057L88.2964 31.9668L88.7632 32.7057C90.1637 34.7209 91.4975 36.8033 91.4975 39.6917C91.4975 40.968 91.6308 42.8489 92.3644 44.5282C92.8979 45.8045 93.7649 46.6777 94.8319 46.9464C95.8989 47.2151 97.0994 46.9464 98.0997 46.0732C98.1664 46.0732 98.2331 45.9388 98.2998 45.8045C98.3664 45.6701 98.4998 45.5358 98.6332 45.4014L99.1667 44.864V44.7297Z" fill="#FAEDD0"/>
<path d="M197 104.85C197 123.121 193.799 151.602 165.456 151.602C140.647 151.602 131.444 123.389 131.444 105.118M165.122 107.335V33.7805M164.189 89.2655C146.049 89.2655 131.378 96.05 131.378 104.447C131.378 112.843 146.049 119.628 164.189 119.628C182.328 119.628 197 112.843 197 104.447C197 96.05 182.328 89.2655 164.189 89.2655ZM166.582 26.6533C167.926 30.5422 167.607 34.1893 165.867 34.7993C164.128 35.4094 161.628 32.7513 160.284 28.8624C158.939 24.9735 159.259 21.3264 160.999 20.7164C162.738 20.1064 165.237 22.7644 166.582 26.6533ZM164.826 56.766C165.802 58.3391 163.782 61.3833 160.315 63.5655C156.848 65.7477 153.246 66.2415 152.271 64.6684C151.295 63.0953 153.314 60.0511 156.781 57.8689C160.248 55.6867 163.85 55.1929 164.826 56.766ZM174.814 42.227C176.264 43.3708 175.432 46.8787 172.957 50.0622C170.481 53.2457 167.299 54.8992 165.849 53.7554C164.399 52.6116 165.231 49.1036 167.706 45.9202C170.182 42.7367 173.364 41.0832 174.814 42.227ZM164.752 76.8348C165.903 78.2826 164.25 81.5431 161.059 84.1173C157.868 86.6915 154.348 87.6045 153.196 86.1567C152.045 84.7088 153.699 81.4483 156.89 78.8742C160.081 76.3 163.601 75.3869 164.752 76.8348ZM39.0796 169C29.2096 169 19.8731 165.574 12.9374 159.327C5.20143 152.408 1 142.534 1 131.45H29.2096C29.2096 133.936 29.9432 142.131 39.0796 142.131C41.7472 142.131 44.2147 141.258 45.9486 139.713C48.016 137.899 49.0163 135.01 49.0163 131.249C49.0163 119.09 48.8163 104.85 48.6162 93.4302C48.5495 87.519 48.4161 82.4138 48.4161 78.6521C48.4161 72.002 48.3494 69.9868 49.5498 67.1655L75.6254 77.443C76.4923 75.495 76.6257 73.8157 76.6257 73.4798C76.559 75.1591 76.6257 84.2275 76.8258 93.0272C77.0259 104.581 77.2259 118.889 77.2259 131.249C77.2259 142.399 72.9578 152.341 65.2885 159.26C58.2861 165.507 49.0163 169 39.0796 169ZM137.98 169C137.98 169 137.847 166.112 132.111 158.991C127.243 153.013 120.641 146.699 113.572 139.914C96.2991 123.389 79.9602 107.738 79.6934 88.8625L103.235 88.4594C103.235 88.7953 103.435 92.0868 109.57 99.6102C114.639 105.857 121.774 112.709 128.71 119.359C145.582 135.481 161.521 150.729 161.521 168.866H137.98V169ZM84.6951 12.4194C103.368 12.4194 118.573 27.6677 118.573 46.5434V67.0984C118.573 71.3303 115.172 74.7561 110.971 74.7561H76.8925C67.0891 74.7561 59.1531 66.7625 59.1531 56.888V38.2139C59.1531 23.9732 70.6237 12.4194 84.7618 12.4194H84.6951ZM64.6883 86.1084C55.4185 86.1084 47.8159 78.5178 47.8159 69.1136V25.451C47.8159 11.9492 58.6863 1 72.0908 1H99.9003C116.439 1 129.91 14.569 129.91 31.2279V49.8349C129.91 69.8525 113.772 86.1084 93.8983 86.1084H64.6883ZM86.8959 66.0236L86.7625 65.8221C86.7625 65.8221 86.4957 65.3519 86.3624 65.0832C86.3624 64.9488 86.229 64.8145 86.1623 64.7473C84.6284 62.6649 84.8285 60.6497 86.6291 58.7689C87.3627 58.03 87.9629 57.2239 88.6298 56.3507C88.9632 55.9476 89.23 55.6118 89.5634 55.2087L89.8302 54.8728L90.1637 55.1415C91.5641 56.1491 92.6312 58.0972 92.8979 60.3139C93.1647 62.4634 92.6978 64.4114 91.6308 65.6877L91.4974 65.8221H91.2974C90.4304 65.9564 89.4968 65.9564 88.5631 65.9564C88.0296 65.9564 87.5628 65.9564 87.0292 65.9564H86.8292L86.8959 66.0236ZM90.0303 56.1491C90.0303 56.1491 89.6301 56.6865 89.3634 56.9552C88.6965 57.8285 88.0296 58.6345 87.296 59.3734C85.7622 60.9856 85.6955 62.4634 86.8959 64.2099C87.0293 64.3443 87.0959 64.5458 87.1626 64.7473C87.1626 64.8817 87.296 65.016 87.3627 65.0832C87.7628 65.0832 88.2297 65.0832 88.6298 65.0832C89.4301 65.0832 90.297 65.0832 91.0973 65.016C91.9643 63.874 92.2977 62.2619 92.0309 60.4482C91.8309 58.7017 91.0306 57.0896 89.9636 56.2163L90.0303 56.1491ZM86.6291 66.1579C84.9619 66.1579 83.1613 65.4862 81.294 64.2099C77.5594 61.6573 74.4917 57.0224 73.9582 53.2607C73.2913 48.3571 74.3583 43.5206 76.9592 39.5574C77.9595 38.0124 79.1599 36.5346 80.2936 35.0568C80.4937 34.7881 80.6938 34.5194 80.8939 34.2507C84.4951 29.5486 85.0953 28.1379 85.8289 22.2267L85.9622 20.9504L86.7625 21.8908C90.297 26.0556 94.2984 30.7577 93.8316 37.6094C93.6982 39.1543 93.8316 40.4978 94.0983 41.6397C94.2317 42.11 94.8986 42.7817 95.4988 43.0504C95.7656 43.1847 96.099 43.1847 96.3658 43.0504C96.6992 42.916 96.966 42.5802 97.0994 42.1771C97.4328 41.2367 97.6329 40.2291 97.7663 39.2215C97.7663 38.9528 97.8329 38.6841 97.8996 38.3483C97.8996 38.0124 97.8996 37.6765 97.9663 37.2735C97.9663 37.0048 97.9663 36.7361 97.9663 36.4674V35.1911L98.9 36.1315C101.234 38.617 102.701 41.4382 103.435 45.1327C104.902 52.1859 102.301 58.7017 100.1 60.8513C99.967 60.9856 99.7669 61.1871 99.5669 61.3886C98.033 63.0008 95.0987 66.0908 90.2304 66.0908H89.5635L89.6968 65.419C89.6968 65.419 89.6968 65.016 91.8309 63.6054C92.4311 63.2023 93.6982 62.3291 93.8983 62.2619C96.5658 60.8513 98.4332 58.2315 99.2334 54.8728C99.8336 52.1187 99.7002 49.1631 98.7666 46.6777C98.7666 46.6777 98.6999 46.7449 98.6332 46.8121C97.2994 47.8868 95.8323 48.2899 94.3651 47.8868C92.9646 47.551 91.7642 46.409 91.164 44.7969C90.4304 42.9832 90.2304 40.9008 90.2304 39.5574C90.2304 37.3407 89.2967 35.5942 88.2297 33.9148C88.2297 33.982 88.0963 34.1163 88.0963 34.1835C87.6962 34.9896 87.296 35.7285 86.8292 36.4002C85.9622 37.6094 85.0286 38.8856 84.0949 40.0276C83.228 41.2367 82.2943 42.4458 81.3607 43.6549C78.0929 48.2227 77.3593 51.2455 78.4263 55.5446C79.0265 57.8285 80.5604 59.5078 82.0942 61.1871C82.5611 61.6573 82.9612 62.1275 83.428 62.6649C83.8949 63.2695 85.4287 63.8069 86.5624 64.2771C87.2293 64.5458 87.7628 64.7473 88.163 64.9488L89.3634 65.6205L88.0296 65.9564C87.5628 66.0908 87.1626 66.0908 86.6958 66.0908L86.6291 66.1579ZM99.1667 44.7297L99.5002 45.4686C102.168 51.3127 100.767 60.0452 94.4985 63.3367C94.2984 63.471 93.1647 64.2099 92.231 64.8816C95.5655 64.2771 97.6329 62.0604 98.9667 60.7169C99.1667 60.5154 99.3668 60.3139 99.5002 60.1795C101.234 58.5002 103.968 52.3874 102.501 45.4686C101.901 42.513 100.834 40.0948 99.1667 38.0796C99.1667 38.2811 99.1667 38.5498 99.1 38.7513C99.1 39.02 99.0333 39.2887 98.9667 39.5574C98.7666 40.6321 98.6332 41.7069 98.2331 42.7145C97.9663 43.3862 97.4995 43.9236 96.8993 44.1923C96.3658 44.461 95.6989 44.461 95.1654 44.1923C94.3651 43.8565 93.3648 42.9832 93.098 42.0428C92.7646 40.8337 92.6979 39.3559 92.8312 37.6765C93.2314 31.7653 90.097 27.6006 86.8292 23.7045C86.1623 28.8097 85.2953 30.489 81.8275 34.9896C81.6274 35.2583 81.4274 35.527 81.2273 35.7957C80.0936 37.2063 78.9599 38.6841 77.9595 40.2291C75.492 43.9908 74.4917 48.5586 75.1586 53.1935C75.6254 56.6865 78.5597 60.9184 82.0276 63.3367C82.6945 63.8069 83.4947 64.2771 84.4284 64.6129C83.6948 64.2771 83.0946 63.874 82.6945 63.471C82.2943 63.0008 81.8942 62.5306 81.4274 62.0604C79.8935 60.381 78.1596 58.5002 77.4927 55.9476C76.2923 51.3127 77.1592 48.0212 80.6271 43.1176C81.4941 41.9084 82.4277 40.6321 83.3614 39.4902C84.2283 38.2811 85.162 37.072 86.0956 35.8628C86.5624 35.2583 86.8959 34.5194 87.296 33.7805C87.4961 33.4446 87.6962 33.0416 87.8962 32.7057L88.2964 31.9668L88.7632 32.7057C90.1637 34.7209 91.4975 36.8033 91.4975 39.6917C91.4975 40.968 91.6308 42.8489 92.3644 44.5282C92.8979 45.8045 93.7649 46.6777 94.8319 46.9464C95.8989 47.2151 97.0994 46.9464 98.0997 46.0732C98.1664 46.0732 98.2331 45.9388 98.2998 45.8045C98.3665 45.6701 98.4998 45.5358 98.6332 45.4014L99.1667 44.864V44.7297Z" stroke="#FAEDD0" stroke-width="0.04" stroke-miterlimit="10"/>
</svg>
