<svg width="320" height="81" viewBox="0 0 320 81" fill="none" xmlns="http://www.w3.org/2000/svg">
<rect width="320" height="81" fill="#FAEDD0"/>
<path d="M179.607 41.4675C179.607 45.7382 178.862 52.3954 172.267 52.3954C166.494 52.3954 164.353 45.801 164.353 41.5303" stroke="#5C191C" stroke-width="0.33" stroke-miterlimit="10"/>
<path d="M171.972 37.8248C167.751 37.8248 164.337 39.4106 164.337 41.3733C164.337 43.3359 167.751 44.9217 171.972 44.9217C176.193 44.9217 179.607 43.3359 179.607 41.3733C179.607 39.4106 176.193 37.8248 171.972 37.8248Z" stroke="#5C191C" stroke-width="0.33" stroke-miterlimit="10"/>
<path d="M172.19 42.0485V24.8558" stroke="#5C191C" stroke-width="0.07" stroke-miterlimit="10"/>
<path d="M172.363 25.094C172.768 24.9514 172.842 24.0989 172.529 23.1899C172.216 22.281 171.635 21.6597 171.23 21.8022C170.825 21.9448 170.751 22.7973 171.064 23.7063C171.377 24.6153 171.958 25.2366 172.363 25.094Z" fill="#5C191C" stroke="#5C191C" stroke-width="0.07" stroke-miterlimit="10"/>
<path d="M171.071 31.8178C171.878 31.3077 172.348 30.5961 172.121 30.2285C171.893 29.8608 171.055 29.9762 170.249 30.4862C169.442 30.9963 168.972 31.7079 169.199 32.0756C169.426 32.4432 170.264 32.3278 171.071 31.8178Z" fill="#5C191C" stroke="#5C191C" stroke-width="0.07" stroke-miterlimit="10"/>
<path d="M174.012 28.6615C174.589 27.9174 174.782 27.0974 174.445 26.8301C174.107 26.5627 173.367 26.9492 172.791 27.6933C172.215 28.4374 172.021 29.2574 172.359 29.5247C172.696 29.7921 173.436 29.4056 174.012 28.6615Z" fill="#5C191C" stroke="#5C191C" stroke-width="0.07" stroke-miterlimit="10"/>
<path d="M171.244 36.6216C171.986 36.0199 172.371 35.2578 172.103 34.9193C171.836 34.5809 171.016 34.7943 170.274 35.396C169.531 35.9977 169.147 36.7598 169.414 37.0982C169.682 37.4367 170.501 37.2232 171.244 36.6216Z" fill="#5C191C" stroke="#5C191C" stroke-width="0.07" stroke-miterlimit="10"/>
<path d="M142.86 56.4619C140.563 56.4619 138.391 55.6612 136.777 54.201C134.977 52.5838 133.999 50.2757 133.999 47.6851H140.563C140.563 48.266 140.734 50.1815 142.86 50.1815C143.481 50.1815 144.055 49.9774 144.459 49.6163C144.94 49.1924 145.172 48.5172 145.172 47.638C145.172 44.7961 145.126 41.4675 145.079 38.7983C145.064 37.4166 145.033 36.2233 145.033 35.3441C145.033 33.7897 145.017 33.3186 145.297 32.6592L151.364 35.0614C151.566 34.6061 151.597 34.2136 151.597 34.1351C151.581 34.5276 151.597 36.6472 151.643 38.7041C151.69 41.4046 151.737 44.749 151.737 47.638C151.737 50.2443 150.743 52.5681 148.959 54.1853C147.329 55.6455 145.172 56.4619 142.86 56.4619Z" fill="#5C191C" stroke="#5C191C" stroke-width="0.72" stroke-miterlimit="10"/>
<path d="M165.874 56.462C165.874 56.462 165.843 55.7869 164.508 54.1225C163.375 52.7252 161.839 51.2493 160.194 49.6635C156.175 45.801 152.373 42.1427 152.311 37.7307L157.789 37.6365C157.789 37.715 157.835 38.4843 159.263 40.2428C160.442 41.703 162.103 43.3045 163.717 44.8589C167.643 48.6272 171.352 52.1913 171.352 56.4306H165.874V56.462Z" fill="#5C191C" stroke="#5C191C" stroke-width="0.72" stroke-miterlimit="10"/>
<path d="M153.475 19.8629C157.82 19.8629 161.358 23.427 161.358 27.839V32.6435C161.358 33.6327 160.566 34.4335 159.589 34.4335H151.659C149.378 34.4335 147.531 32.565 147.531 30.257V25.8921C147.531 22.5635 150.2 19.8629 153.49 19.8629H153.475Z" fill="#5E4290" stroke="#A69898" stroke-width="0.7" stroke-miterlimit="10"/>
<path d="M155.601 37.0869H148.819C146.662 37.0869 144.893 35.3127 144.893 33.1146V22.9089C144.893 19.753 147.423 17.1937 150.542 17.1937H157.013C160.861 17.1937 163.996 20.3653 163.996 24.2592V28.6084C163.996 33.2873 160.241 37.0869 155.616 37.0869H155.601Z" fill="#5C191C" stroke="#5C191C" stroke-width="0.7" stroke-miterlimit="10"/>
<path d="M153.987 32.3923L153.956 32.3452C153.956 32.3452 153.894 32.2352 153.863 32.1724C153.863 32.141 153.832 32.1096 153.816 32.0939C153.459 31.6072 153.506 31.1362 153.925 30.6965C154.095 30.5238 154.235 30.3354 154.39 30.1313C154.468 30.0371 154.53 29.9586 154.607 29.8644L154.669 29.7859L154.747 29.8487C155.073 30.0842 155.321 30.5395 155.383 31.0577C155.445 31.5601 155.337 32.0154 155.088 32.3138L155.057 32.3452H155.011C154.809 32.3766 154.592 32.3766 154.375 32.3766C154.251 32.3766 154.142 32.3766 154.018 32.3766H153.971L153.987 32.3923ZM154.716 30.0842C154.716 30.0842 154.623 30.2098 154.561 30.2726C154.406 30.4767 154.251 30.6651 154.08 30.8379C153.723 31.2147 153.707 31.5601 153.987 31.9683C154.018 31.9997 154.033 32.0468 154.049 32.0939C154.049 32.1253 154.08 32.1567 154.095 32.1724C154.188 32.1724 154.297 32.1724 154.39 32.1724C154.576 32.1724 154.778 32.1724 154.964 32.1567C155.166 31.8898 155.244 31.513 155.182 31.0891C155.135 30.6808 154.949 30.304 154.701 30.0999L154.716 30.0842Z" fill="#FAEDD0" stroke="#FAEDD0" stroke-width="0.04" stroke-miterlimit="10"/>
<path d="M153.925 32.4237C153.537 32.4237 153.118 32.2667 152.683 31.9684C151.814 31.3718 151.1 30.2884 150.976 29.4091C150.821 28.2629 151.069 27.1325 151.674 26.2061C151.907 25.845 152.187 25.4996 152.45 25.1541C152.497 25.0913 152.544 25.0285 152.59 24.9657C153.428 23.8667 153.568 23.5369 153.738 22.1553L153.769 21.8569L153.956 22.0767C154.778 23.0502 155.709 24.1493 155.601 25.7508C155.57 26.1119 155.601 26.4259 155.663 26.6928C155.694 26.8028 155.849 26.9598 155.989 27.0226C156.051 27.054 156.128 27.054 156.19 27.0226C156.268 26.9912 156.33 26.9127 156.361 26.8185C156.439 26.5986 156.485 26.3631 156.516 26.1276C156.516 26.0648 156.532 26.002 156.547 25.9235C156.547 25.845 156.547 25.7665 156.563 25.6723C156.563 25.6095 156.563 25.5467 156.563 25.4839V25.1855L156.78 25.4054C157.323 25.9863 157.665 26.6457 157.835 27.5093C158.177 29.1579 157.571 30.6809 157.059 31.1833C157.028 31.2147 156.982 31.2618 156.935 31.3089C156.578 31.6858 155.895 32.408 154.763 32.408H154.607L154.638 32.251C154.638 32.251 154.638 32.1568 155.135 31.8271C155.275 31.7329 155.57 31.5288 155.616 31.5131C156.237 31.1833 156.671 30.571 156.858 29.7859C156.997 29.1422 156.966 28.4514 156.749 27.8704C156.749 27.8704 156.733 27.8861 156.718 27.9018C156.408 28.153 156.066 28.2472 155.725 28.153C155.399 28.0745 155.12 27.8076 154.98 27.4308C154.809 27.0069 154.763 26.5201 154.763 26.2061C154.763 25.688 154.545 25.2798 154.297 24.8872C154.297 24.9029 154.266 24.9343 154.266 24.95C154.173 25.1384 154.08 25.3112 153.971 25.4682C153.769 25.7508 153.552 26.0491 153.335 26.316C153.133 26.5986 152.916 26.8813 152.699 27.1639C151.938 28.2315 151.768 28.9381 152.016 29.943C152.156 30.4768 152.512 30.8693 152.869 31.2618C152.978 31.3717 153.071 31.4817 153.18 31.6073C153.288 31.7486 153.645 31.8742 153.909 31.9841C154.064 32.0469 154.188 32.094 154.282 32.1411L154.561 32.2981L154.251 32.3766C154.142 32.408 154.049 32.408 153.94 32.408L153.925 32.4237ZM156.842 27.4151L156.92 27.5878C157.54 28.9538 157.214 30.9949 155.756 31.7643C155.709 31.7957 155.445 31.9684 155.228 32.1254C156.004 31.9841 156.485 31.466 156.795 31.1519C156.842 31.1048 156.889 31.0577 156.92 31.0263C157.323 30.6338 157.959 29.205 157.618 27.5878C157.478 26.897 157.23 26.3317 156.842 25.8607C156.842 25.9078 156.842 25.9706 156.827 26.0177C156.827 26.0805 156.811 26.1433 156.795 26.2061C156.749 26.4573 156.718 26.7085 156.625 26.9441C156.563 27.1011 156.454 27.2267 156.314 27.2895C156.19 27.3523 156.035 27.3523 155.911 27.2895C155.725 27.211 155.492 27.0069 155.43 26.7871C155.352 26.5044 155.337 26.159 155.368 25.7665C155.461 24.3848 154.732 23.4113 153.971 22.5007C153.816 23.694 153.614 24.0865 152.807 25.1384C152.761 25.2013 152.714 25.2641 152.668 25.3269C152.404 25.6566 152.14 26.002 151.907 26.3631C151.333 27.2424 151.1 28.3101 151.255 29.3934C151.364 30.2099 152.047 31.199 152.854 31.7643C153.009 31.8742 153.195 31.9841 153.413 32.0626C153.242 31.9841 153.102 31.8899 153.009 31.7957C152.916 31.6858 152.823 31.5759 152.714 31.466C152.357 31.0734 151.954 30.6338 151.799 30.0372C151.519 28.9538 151.721 28.1844 152.528 27.0383C152.73 26.7557 152.947 26.4573 153.164 26.1904C153.366 25.9078 153.583 25.6252 153.8 25.3426C153.909 25.2012 153.987 25.0285 154.08 24.8558C154.126 24.7773 154.173 24.6831 154.219 24.6046L154.313 24.4319L154.421 24.6046C154.747 25.0756 155.057 25.5624 155.057 26.2375C155.057 26.5358 155.088 26.9755 155.259 27.368C155.383 27.6663 155.585 27.8704 155.833 27.9332C156.082 27.996 156.361 27.9332 156.594 27.7291C156.609 27.7291 156.625 27.6977 156.64 27.6663C156.656 27.6349 156.687 27.6035 156.718 27.5721L156.842 27.4465V27.4151Z" fill="#FAEDD0" stroke="#FAEDD0" stroke-width="0.04" stroke-miterlimit="10"/>
</svg>
