<svg xmlns="http://www.w3.org/2000/svg" id="Layer_2" viewBox="0 0 100 103.82"><g id="Layer_3"><path fill="#5c191c" d="M29.55 44.69c-.02.86-.02 1.9 0 3.28.02 2.32.07 5.48.13 9.13.11 7.08.26 15.88.26 23.39 0 2.33-.65 4.08-1.92 5.21-1.06.95-2.62 1.49-4.27 1.49-5.72 0-6.16-5.05-6.16-6.6H0c0 6.86 2.65 12.98 7.45 17.24 4.35 3.86 10.14 5.98 16.3 5.98s11.97-2.13 16.33-6.01c4.8-4.27 7.45-10.42 7.45-17.31 0-7.64-.14-16.51-.26-23.64-.02-1.44-.05-2.88-.07-4.25h.38c.6 11.91 10.82 21.84 21.66 32.34 4.52 4.37 8.78 8.51 11.88 12.37 3.7 4.62 3.77 6.48 3.77 6.5H100c0-11.8-10.22-21.7-21.04-32.18-4.45-4.31-9.06-8.77-12.29-12.84-2.94-3.69-3.74-5.82-3.96-6.74 10.04-2.23 17.58-11.19 17.58-21.89V18.68C80.29 8.38 71.91 0 61.61 0h-17.3c-8.34 0-15.12 6.78-15.12 15.12m18.13 8.7c.64-.96 1.36-1.88 2.06-2.77.13-.17.26-.33.39-.5 2.26-2.89 2.63-3.79 3.08-7.42l.09-.77.51.59c2.19 2.57 4.68 5.47 4.39 9.72-.06.95-.01 1.78.16 2.47.07.3.48.71.86.85.19.07.38.07.56-.01.21-.09.38-.29.47-.53.21-.57.31-1.22.42-1.84.03-.18.06-.35.09-.52.03-.19.04-.4.04-.67 0-.15 0-.32.01-.51l.04-.8.55.58c1.47 1.53 2.37 3.3 2.84 5.56.91 4.38-.7 8.39-2.07 9.72l-.33.33c-.98 1.01-2.79 2.9-5.82 2.9h-.4l.02-.1c-.23 0-.44.03-.67.03h-.41c-.27.07-.55.1-.84.1-1.03 0-2.16-.41-3.32-1.2-2.32-1.59-4.25-4.43-4.58-6.75-.43-3.01.23-6.02 1.86-8.47Z"/><path fill="#5c191c" d="M57.92 37.85c1.66-.86 2.83-2.48 3.31-4.56.39-1.68.27-3.53-.29-5.05-.02.02-.05.04-.07.06-.82.66-1.76.9-2.65.67-.88-.23-1.61-.92-2.01-1.89-.46-1.14-.57-2.4-.57-3.26-.01-1.37-.57-2.45-1.26-3.48-.03.06-.06.12-.1.18-.26.48-.5.93-.8 1.36-.55.77-1.13 1.53-1.69 2.26s-1.14 1.49-1.68 2.25c-2.05 2.84-2.51 4.69-1.83 7.34.36 1.42 1.35 2.47 2.3 3.48.29.31.56.6.82.9.24.28.86.56 1.44.79-.61-1.13-.47-2.2.53-3.24.44-.46.84-.95 1.27-1.48.19-.24.39-.47.58-.71l.17-.2.21.15c.89.63 1.53 1.82 1.71 3.19.08.59.03 1.15-.07 1.68.32-.22.63-.42.7-.45Z"/><path fill="#5c191c" d="M55.46 34.06c-.14.16-.27.33-.4.49-.43.53-.84 1.03-1.3 1.51-.93.98-1.01 1.9-.23 2.98.04.06.07.13.11.2.25.1.52.2.66.28l.07.04h.24c.31 0 .6-.02.9-.03.14-.12.43-.34.91-.68.27-.62.42-1.34.31-2.16-.14-1.09-.62-2.07-1.27-2.64Z"/><path fill="#5c191c" d="M50.43 38.48c.42.29.93.59 1.5.79-.44-.21-.83-.44-1.06-.71-.25-.29-.51-.58-.8-.88-.96-1.03-2.05-2.19-2.46-3.78-.73-2.85-.22-4.92 1.94-7.91.55-.77 1.13-1.53 1.69-2.26s1.14-1.49 1.68-2.25c.28-.38.51-.82.75-1.28.12-.22.24-.45.37-.68l.27-.47.31.44c.89 1.26 1.68 2.54 1.7 4.32 0 .8.1 1.97.52 3.01.32.78.87 1.31 1.55 1.48.67.17 1.4-.02 2.04-.54.05-.04.09-.1.14-.17.06-.08.13-.17.22-.26l.35-.33.2.44c1.67 3.59.8 9.01-3.12 11.03-.12.07-.82.54-1.42.95 2.06-.38 3.36-1.73 4.19-2.59.13-.13.24-.25.34-.35 1.09-1.06 2.76-4.81 1.88-9.09-.38-1.82-1.05-3.3-2.09-4.59 0 .14-.02.27-.04.41l-.09.51c-.11.65-.22 1.33-.45 1.96-.15.42-.46.75-.83.92-.35.16-.74.16-1.09.02-.51-.2-1.13-.75-1.27-1.32-.19-.76-.25-1.66-.18-2.69.25-3.67-1.69-6.23-3.73-8.64-.43 3.14-.95 4.21-3.12 6.99-.13.17-.26.33-.39.5-.69.88-1.4 1.79-2.03 2.73-1.54 2.31-2.16 5.15-1.75 8 .31 2.15 2.11 4.79 4.29 6.28Z"/><path fill="#faedd0" d="M50.04 39.05c1.16.79 2.29 1.2 3.32 1.2q.435 0 .84-.09h.04c.12-.01.25-.01.37-.01.23 0 .44-.02.67-.03l-.02.1h.4c3.03 0 4.84-1.88 5.82-2.9q.18-.195.33-.33c1.37-1.33 2.98-5.34 2.07-9.72-.47-2.27-1.37-4.03-2.84-5.56l-.55-.58-.04.8c0 .19-.01.36-.01.51 0 .27 0 .48-.04.67l-.09.52c-.1.62-.21 1.26-.42 1.84-.09.24-.26.44-.47.53-.18.08-.37.08-.56.01-.37-.15-.78-.56-.86-.85-.17-.69-.23-1.52-.16-2.47.29-4.24-2.2-7.15-4.39-9.72l-.51-.59-.09.77c-.44 3.63-.82 4.53-3.08 7.42-.13.17-.26.33-.39.5-.7.89-1.42 1.81-2.06 2.77-1.63 2.45-2.29 5.46-1.86 8.47.33 2.32 2.26 5.16 4.58 6.75Zm5.47.48c-.3.01-.59.03-.9.03h-.24l-.07-.04c-.14-.09-.41-.18-.66-.28-.03-.07-.06-.14-.11-.2-.78-1.08-.71-2 .23-2.98.45-.48.86-.98 1.3-1.51l.4-.49c.65.57 1.13 1.55 1.27 2.64.11.82-.04 1.53-.31 2.16-.48.33-.77.55-.91.68Zm.07-6.1-.21-.15-.17.2c-.2.24-.39.48-.58.71-.43.52-.83 1.02-1.27 1.48-.99 1.04-1.14 2.11-.53 3.24-.59-.23-1.2-.51-1.44-.79-.26-.3-.53-.59-.82-.9-.95-1.02-1.93-2.07-2.3-3.48-.68-2.65-.22-4.5 1.83-7.34.55-.76 1.12-1.52 1.68-2.25.56-.74 1.14-1.5 1.69-2.26.3-.42.54-.88.8-1.36.03-.06.06-.12.1-.18.69 1.03 1.25 2.1 1.26 3.48 0 .86.11 2.12.57 3.26.4.97 1.13 1.66 2.01 1.89s1.82-.01 2.65-.67c.03-.02.05-.04.07-.06.57 1.52.68 3.37.29 5.05-.48 2.08-1.66 3.71-3.31 4.56-.06.03-.37.24-.7.45.1-.53.15-1.09.07-1.68-.18-1.37-.82-2.57-1.71-3.19Zm-7.69-9.23c.63-.94 1.34-1.85 2.03-2.73.13-.17.26-.33.39-.5 2.17-2.78 2.69-3.85 3.12-6.99 2.04 2.41 3.98 4.97 3.73 8.64-.07 1.02 0 1.93.18 2.69.14.57.76 1.12 1.27 1.32.36.14.74.13 1.09-.02.38-.17.68-.51.83-.92.23-.63.34-1.31.45-1.96l.09-.51c.02-.13.04-.27.04-.41 1.05 1.29 1.72 2.76 2.09 4.59.88 4.28-.79 8.03-1.88 9.09-.1.1-.21.22-.34.35-.83.86-2.13 2.21-4.19 2.59.6-.42 1.29-.88 1.42-.95 3.92-2.02 4.79-7.44 3.12-11.03l-.2-.44-.35.33c-.09.09-.16.18-.22.26-.05.07-.1.13-.14.17-.65.52-1.38.72-2.04.54-.68-.18-1.23-.7-1.55-1.48-.42-1.04-.52-2.21-.52-3.01-.01-1.78-.81-3.06-1.7-4.32l-.31-.44-.27.47c-.13.23-.25.46-.37.68-.24.46-.47.89-.75 1.28-.55.76-1.12 1.52-1.68 2.25-.56.74-1.14 1.5-1.69 2.26-2.16 2.99-2.67 5.06-1.94 7.91.41 1.59 1.5 2.75 2.46 3.78.28.3.55.59.8.88.23.27.62.5 1.06.71-.56-.21-1.08-.51-1.5-.79-2.18-1.49-3.98-4.13-4.29-6.28-.41-2.85.22-5.69 1.75-8Z"/></g></svg>