<svg xmlns="http://www.w3.org/2000/svg" width="320" height="81" fill="none"><path fill="#FAEDD0" d="M0 0h320v81H0z"/><path stroke="#5C191C" stroke-miterlimit="10" stroke-width=".33" d="M179.607 41.468c0 4.27-.745 10.927-7.34 10.927-5.773 0-7.914-6.594-7.914-10.865"/><path stroke="#5C191C" stroke-miterlimit="10" stroke-width=".33" d="M171.972 37.825c-4.221 0-7.635 1.586-7.635 3.548 0 1.963 3.414 3.549 7.635 3.549s7.635-1.586 7.635-3.549-3.414-3.548-7.635-3.548Z"/><path stroke="#5C191C" stroke-miterlimit="10" stroke-width=".07" d="M172.19 42.049V24.855"/><path fill="#5C191C" stroke="#5C191C" stroke-miterlimit="10" stroke-width=".07" d="M172.363 25.094c.405-.143.479-.995.166-1.904s-.894-1.53-1.299-1.388-.479.995-.166 1.904c.313.91.894 1.53 1.299 1.388ZM171.071 31.818c.807-.51 1.277-1.222 1.05-1.59-.228-.367-1.066-.252-1.872.258-.807.51-1.277 1.222-1.05 1.59.227.367 1.065.252 1.872-.258ZM174.012 28.662c.577-.745.77-1.565.433-1.832-.338-.267-1.078.12-1.654.863-.576.744-.77 1.564-.432 1.832.337.267 1.077-.12 1.653-.863ZM171.244 36.622c.742-.602 1.127-1.364.859-1.703-.267-.338-1.087-.125-1.829.477-.743.602-1.127 1.364-.86 1.702.268.339 1.087.125 1.83-.476Z"/><path fill="#5C191C" stroke="#5C191C" stroke-miterlimit="10" stroke-width=".72" d="M142.86 56.462c-2.297 0-4.469-.8-6.083-2.261-1.8-1.617-2.778-3.925-2.778-6.516h6.564c0 .581.171 2.496 2.297 2.496.621 0 1.195-.204 1.599-.565.481-.424.713-1.099.713-1.978 0-2.842-.046-6.17-.093-8.84-.015-1.381-.046-2.575-.046-3.454 0-1.554-.016-2.025.264-2.685l6.067 2.402c.202-.455.233-.847.233-.926-.016.393 0 2.512.046 4.57.047 2.7.094 6.044.094 8.933 0 2.606-.994 4.93-2.778 6.547-1.63 1.46-3.787 2.277-6.099 2.277ZM165.874 56.462s-.031-.675-1.366-2.34c-1.133-1.397-2.669-2.873-4.314-4.459-4.019-3.862-7.821-7.52-7.883-11.932l5.478-.095c0 .079.046.848 1.474 2.607 1.179 1.46 2.84 3.061 4.454 4.616 3.926 3.768 7.635 7.332 7.635 11.572h-5.478z"/><path fill="#5E4290" stroke="#A69898" stroke-miterlimit="10" stroke-width=".7" d="M153.475 19.863c4.345 0 7.883 3.564 7.883 7.976v4.805c0 .989-.792 1.79-1.769 1.79h-7.93c-2.281 0-4.128-1.869-4.128-4.177v-4.365c0-3.328 2.669-6.03 5.959-6.03z"/><path fill="#5C191C" stroke="#5C191C" stroke-miterlimit="10" stroke-width=".7" d="M155.601 37.087h-6.782c-2.157 0-3.926-1.774-3.926-3.972V22.909c0-3.156 2.53-5.715 5.649-5.715h6.471c3.848 0 6.983 3.171 6.983 7.065v4.35c0 4.678-3.755 8.478-8.38 8.478z"/><path fill="#FAEDD0" stroke="#FAEDD0" stroke-miterlimit="10" stroke-width=".04" d="m153.987 32.392-.031-.047s-.062-.11-.093-.173c0-.031-.031-.062-.047-.078-.357-.487-.31-.958.109-1.398.17-.172.31-.36.465-.565.078-.094.14-.172.217-.267l.062-.078.078.063c.326.235.574.69.636 1.209.062.502-.046.957-.295 1.256l-.031.031h-.046c-.202.032-.419.032-.636.032h-.404zm.729-2.308s-.093.126-.155.189a6 6 0 0 1-.481.565c-.357.377-.373.722-.093 1.13.031.032.046.079.062.126 0 .031.031.063.046.078h.295c.186 0 .388 0 .574-.015.202-.267.28-.644.218-1.068-.047-.408-.233-.785-.481-.99z"/><path fill="#FAEDD0" stroke="#FAEDD0" stroke-miterlimit="10" stroke-width=".04" d="M153.925 32.424c-.388 0-.807-.157-1.242-.456-.869-.596-1.583-1.68-1.707-2.559-.155-1.146.093-2.276.698-3.203.233-.361.513-.706.776-1.052l.14-.188c.838-1.1.978-1.43 1.148-2.81l.031-.3.187.22c.822.974 1.753 2.073 1.645 3.675-.031.36 0 .675.062.942.031.11.186.267.326.33a.23.23 0 0 0 .201 0 .32.32 0 0 0 .171-.204 3.4 3.4 0 0 0 .155-.691c0-.063.016-.126.031-.204 0-.079 0-.157.016-.252v-.487l.217.22c.543.581.885 1.24 1.055 2.104.342 1.649-.264 3.172-.776 3.674l-.124.126c-.357.377-1.04 1.099-2.172 1.099h-.156l.031-.157s0-.094.497-.424c.14-.094.435-.298.481-.314.621-.33 1.055-.942 1.242-1.727.139-.644.108-1.335-.109-1.916l-.031.032c-.31.251-.652.345-.993.251-.326-.078-.605-.345-.745-.722-.171-.424-.217-.91-.217-1.225 0-.518-.218-.926-.466-1.319 0 .016-.031.047-.031.063a4 4 0 0 1-.295.518c-.202.283-.419.581-.636.848-.202.283-.419.565-.636.848-.761 1.067-.931 1.774-.683 2.779.14.534.496.926.853 1.319.109.11.202.22.311.345.108.142.465.267.729.377.155.063.279.11.373.157l.279.157-.31.079c-.109.031-.202.031-.311.031zm2.917-5.009.078.173c.62 1.366.294 3.407-1.164 4.176-.047.032-.311.204-.528.361.776-.14 1.257-.659 1.567-.973l.125-.126c.403-.392 1.039-1.821.698-3.438-.14-.691-.388-1.256-.776-1.727 0 .047 0 .11-.015.157a.8.8 0 0 1-.032.188c-.046.251-.077.503-.17.738a.62.62 0 0 1-.311.346.46.46 0 0 1-.403 0c-.186-.079-.419-.283-.481-.503-.078-.283-.093-.628-.062-1.02.093-1.382-.636-2.356-1.397-3.266-.155 1.193-.357 1.585-1.164 2.637l-.139.189c-.264.33-.528.675-.761 1.036a4.38 4.38 0 0 0-.652 3.03c.109.817.792 1.806 1.599 2.371.155.11.341.22.559.299a1.4 1.4 0 0 1-.404-.267c-.093-.11-.186-.22-.295-.33-.357-.393-.76-.832-.915-1.429-.28-1.083-.078-1.853.729-2.999.202-.282.419-.58.636-.848.202-.282.419-.565.636-.847.109-.142.187-.314.28-.487.046-.079.093-.173.139-.251l.094-.173.108.173c.326.47.636.957.636 1.633 0 .298.031.738.202 1.13.124.298.326.502.574.565.249.063.528 0 .761-.204.015 0 .031-.031.046-.063.016-.031.047-.062.078-.094l.124-.125z"/></svg>