<svg xmlns="http://www.w3.org/2000/svg" width="263" height="74" fill="none"><path fill="#050505" d="M25.525 21.19c.11.11.18.09.18.09 8.45-.33 13.3 2.88 13.71 4.2l3.38-.06 1.05-2.28c.06-.19.03-.47-.04-.54-1.02-1.13-9.52-3.56-19.79-3.56-10.95 0-17.9 2.16-19.36 3.25 0 0-.35.21-.36.53 0 .15.21.56.21.56l.3.65c.09.19.22.18.45.05 0 0 .2-.06.24-.19s-.08-.36-.08-.36c-.22-.44.07-.5.09-.51l.63-.28c.3-.09.33.07.43.31 0 0 .11.33.2.38.16.1.66-.19 2.15-.55.1-.02.16-.03.35-.11.15-.06.02-.56.02-.56-.05-.25-.17-.5.38-.59l.93-.19c.43-.11.48.11.53.36 0 0 .03.38.12.53.12.2.35-.12 3.19-.42 0 0 .41-.01.5-.15.09-.15.02-.49.02-.49-.03-.34-.17-.6.49-.64l1.25-.11c.93-.15.77.16.81.5 0 0 .03.37.1.44s.36.06.36.06c1.6-.16 2.49-.16 4.19-.23 0 0 .24 0 .33-.1.08-.1.06-.2.06-.2 0-.19-.04-.5.08-.63.14-.15.36-.08.58-.08h1.43c.22 0 .67-.1.8.06.08.1.06.71.06.71s0 .1.06.16z"/><path fill="#050505" d="M24.095 7.45c-8.27 0-13.35 2.65-16.6 5.85 0 0-.06.06-.09.14-.06.16-.08.4.26.29 7.08-2.97 14.81-1.11 17.28 1.69.09.13 0 .16-.1.16-2.49.02-4.58-.12-9.18.52-2.49.35-4.7.71-6.57 1.2-3.08.8-5.26 1.8-6.48 2.61-.45.24-.48.42-.59.62-.13.4-.12.4-.2.67-.15.52-.23.85-.26 1.02-.05.31.29.2.47.02.37-.37 1.39-1.27 2.88-1.96 1.52-.71 4.03-1.51 6.76-2.02 3.64-.67 8.07-1.1 12.11-1.11 4.69-.01 8.9.48 12.42 1.16 3.58.7 6.41 1.67 8.23 2.56.86.42 1.34.8 1.92 1.29.46.47.48.06.47-.06 0 0-.09-.62-.85-2.02-2.34-4.29-8.58-12.64-21.89-12.64M.075 62.73c0 1.92 7.98 5.86 24.48 5.86s24.48-3.94 24.48-5.85l-.08-2.94c0 .06-.01-.19-.04-.12-.03-.53-.88-.64-3.46-.67l-.06-1.63c0 .17-.55.52-.89.72-2.11 1.22-10.17 3.03-20.25 3.03-11.68 0-19.85-2.42-21.14-3.75l-.03 2.52c3.84 2.74 15.68 5.21 27.63 3.94.36-.01.48-.08.84.02.1.03.43.32-.23.56-6.93 2.29-24.05 1.78-31.29-3.72l.03 2.07M34.225 24.7h.15-.15000000000000002M34.055 25.32v.03-.52.49M29.675 24.51h.02-.04z"/><path fill="#050505" d="M34.345 23.52h-4.52c-.22 0-.32.1-.32.32v.51c0 .24.1.34.34.35h1.4c.13 0 .16.05.17.07.06.14-.2.26-.29.32l-.69.45c-.1.06-.19.18-.18.43l-.03 32.35c.07.57.97.62 1.95.62.83 0 1.81-.05 1.91-.6 0 0-.03-30.79 0-33.44 0-.12.06-.15.08-.16.03-.02.17-.03.17-.03.21 0 .32-.11.32-.31v-.55c0-.2-.14-.3-.31-.31zM26.925 46.02l.11-.22h.31v-.2h-6.27v.2h.33l.09.2.38.79s.07.07.15.11c.08.03.25.05.3.05 1.65.01 1.29 0 1.55 0 .12 0 .29 0 .37.1.06.07.1.26-.13.41-.54.36-1.43.94-1.85 1.22-.05.03-.19.12-.24.24-.05.13-.04.23-.04.23v6.08l-.53.21s-.16 1.21.02 1.34c.18.12 5.28.12 5.46 0 .18-.11.02-1.37.02-1.37l-.54-.18v-8.16l.51-1.04zM43.095 25.28h-4.52c-.22 0-.32.1-.33.33v.5c0 .24.1.34.34.35h1.4c.13 0 .16.05.17.07.06.14-.2.26-.29.32l-.69.45c-.1.06-.19.18-.18.43l-.03 29.16c.07.57.97.62 1.95.62.83 0 1.81-.05 1.92-.6 0 0-.03-27.6 0-30.26 0-.12.06-.15.07-.16.03-.02.17-.03.17-.03.21 0 .32-.11.32-.31v-.54c0-.2-.14-.3-.31-.31zM18.425 23.52h-4.51c-.22 0-.32.11-.32.33v.5c0 .24.1.34.34.34h1.4c.13 0 .16.06.17.07.06.14-.2.26-.29.32l-.69.45c-.1.06-.19.19-.19.43l-.03 32.35c.07.56.97.62 1.95.61.83 0 1.81-.05 1.91-.6 0 0-.02-30.78 0-33.44 0-.12.06-.15.08-.16.03-.02.17-.03.17-.03.21 0 .32-.11.32-.31v-.55c-.01-.2-.14-.3-.32-.31zM9.645 25.37h-4.52c-.22 0-.32.11-.32.33v.5c0 .24.1.34.34.34h1.4c.13 0 .16.06.17.07.05.14-.2.26-.29.32l-.69.45c-.1.06-.19.19-.18.43l-.03 29.17c.07.56.97.62 1.95.62.83 0 1.81-.05 1.91-.6 0 0-.03-27.6 0-30.26 0-.12.05-.15.07-.16.03-.02.17-.03.17-.03.21 0 .32-.1.32-.31v-.54c-.01-.2-.14-.31-.31-.31zM98.365 16.81h-.61c-.18-1.29-.43-1.57-1.29-1.57h-1.47v5.35c0 1.13.16 1.31 1.43 1.31v.61h-5.05v-.61c1.28 0 1.43-.18 1.43-1.31v-5.35h-1.55c-.61 0-1.03.25-1.21 1.57h-.61l.25-2.6h.56a.4.4 0 0 0 .21.17c.09.02.24.04.44.04h5.86c.61 0 .69-.01.82-.21h.56zM108.685 16.31c0-1.03-.21-1.26-1.09-1.29v-.61h4.41v.61c-.95.02-1.13.26-1.13 1.12v4.47c0 .91.1 1.27 1.13 1.29v.61h-4.41v-.61c.85-.04 1.09-.25 1.09-1.26v-1.89h-3.9v1.93c0 .79.09 1.2 1.13 1.22v.61h-4.46v-.61c.9-.04 1.14-.2 1.14-1.26v-4.36c0-1.04-.29-1.25-1.14-1.25v-.61h4.46v.61c-.87.05-1.13.17-1.13 1.24v1.68h3.9zM122.915 14.42l.12 1.94h-.61c-.12-.88-.31-1.13-.95-1.13h-2.55v2.84h1.68c.93 0 1.17-.19 1.17-.99h.61v2.72h-.61c0-.73-.21-.92-1.16-.92h-1.69v2.1c0 .69.08.74.78.74h1.51c1.13 0 1.43-.49 1.63-1.35h.61l-.17 2.16h-7.94v-.61c1.18 0 1.39-.27 1.39-1.2v-4.48c0-1.1-.38-1.2-1.3-1.2v-.61h7.49zM141.635 14.42v.61c-1.09 0-1.31.19-1.31 1.24v2.88c0 2.6-1.61 3.58-3.84 3.58-2.37 0-3.92-1.05-3.92-2.98V16.3c0-.89-.18-1.26-1.09-1.26v-.61h4.44v.61c-.94 0-1.16.27-1.16 1.15v3.46c0 1.21.65 1.97 2.26 1.97 1.73 0 2.39-.92 2.39-2.58V16.3c0-1.01-.25-1.25-1.3-1.25v-.61h3.54zM154.705 14.42v.61c-.94 0-1.17.26-1.17 1.17v6.4h-1.03l-5.9-6.22v4.3c0 .86.13 1.22 1.24 1.22v.61h-3.35v-.61c.91 0 1.18-.2 1.18-1.29v-5.25c-.15-.16-.47-.34-1.09-.34v-.61h3.07l4.95 5.26v-3.49c0-.8-.14-1.16-1.2-1.16v-.61h3.29zM157.765 22.51v-.61c.92 0 1.12-.34 1.12-1.17v-4.45c0-.91-.18-1.25-1.12-1.25v-.61h4.49v.61c-1.04 0-1.19.34-1.19 1.25v4.37c0 .81.08 1.25 1.19 1.25v.61zM174.545 15.03c-.95 0-1.18.18-1.76 1.46l-2.82 6.23h-.95l-2.73-6.07c-.68-1.51-.82-1.63-1.69-1.63v-.61h4.91v.61c-.96 0-1.33.18-1.33.52 0 .17.08.42.25.79l1.73 3.79 1.5-3.35c.36-.82.46-1.05.46-1.28 0-.34-.34-.51-1.15-.48v-.61h3.6v.61zM183.745 14.42l.12 1.94h-.61c-.12-.88-.31-1.13-.95-1.13h-2.55v2.84h1.68c.92 0 1.17-.19 1.17-.99h.61v2.72h-.61c0-.73-.21-.92-1.16-.92h-1.69v2.1c0 .69.08.74.78.74h1.51c1.13 0 1.43-.49 1.63-1.35h.61l-.16 2.16h-7.94v-.61c1.19 0 1.4-.27 1.4-1.2v-4.48c0-1.1-.38-1.2-1.3-1.2v-.61h7.49zM198.225 22.63h-1.6c-1.17 0-1.9-.22-2.46-.78-.85-.84-1.62-2.23-2.24-2.77h-.69v1.74c0 .96.38 1.08 1.4 1.08v.61h-4.93v-.61c1.1 0 1.35-.2 1.35-1.15v-4.54c0-.98-.23-1.18-1.35-1.18v-.61c.79-.05 1.33-.09 2.37-.14.82-.04 1.63-.06 2.07-.06 2.08 0 3.98.35 3.98 2.36 0 .99-.64 1.72-1.86 2.12.83.65 1.31 1.78 2.15 2.62.57.57 1.12.7 1.82.72v.61zm-6.99-4.19c1.89.03 2.57-.56 2.57-1.9 0-1.03-.66-1.7-1.93-1.7h-.64zM200.555 20.05c.37 1.25 1.22 1.98 2.3 1.98.79 0 1.34-.48 1.34-1.16 0-1.72-4.14-1.89-4.14-4.41 0-.92.64-2.25 2.77-2.25.96 0 1.64.26 2.02.26.14 0 .22-.04.29-.17h.43l.22 2.32h-.61c-.35-1.12-1.26-1.72-2.2-1.72-.68 0-1.15.34-1.15.82 0 1.35 4.35 1.73 4.35 4.53 0 1.47-1.24 2.47-3.04 2.47-.93 0-1.88-.29-2.1-.29s-.3.12-.33.19h-.42l-.35-2.58h.61zM209.375 22.51v-.61c.92 0 1.12-.34 1.12-1.17v-4.45c0-.91-.18-1.25-1.12-1.25v-.61h4.49v.61c-1.04 0-1.18.34-1.18 1.25v4.37c0 .81.08 1.25 1.18 1.25v.61zM225.535 16.81h-.61c-.18-1.29-.43-1.57-1.29-1.57h-1.47v5.35c0 1.13.16 1.31 1.43 1.31v.61h-5.05v-.61c1.27 0 1.43-.18 1.43-1.31v-5.35h-1.55c-.61 0-1.03.25-1.21 1.57h-.61l.25-2.6h.56c.05.08.1.13.21.17.09.02.24.04.44.04h5.86c.61 0 .69-.01.82-.21h.56zM237.345 15.03c-.89 0-1.11.18-1.81 1.26l-1.91 2.94v1.43c0 .94.13 1.24 1.29 1.24v.61h-4.78v-.61c1.15 0 1.3-.31 1.3-1.25v-1.34l-2.4-3.24c-.62-.85-.87-1.04-1.61-1.04v-.61h4.69v.61c-.64 0-.89.08-.89.32 0 .1.09.27.21.43l1.82 2.47 1.31-2.06c.23-.38.34-.6.34-.76 0-.3-.22-.42-.86-.42v-.61h3.29v.61zM93.735 35.51c.97 0 1.59.86 1.59 2.19 0 2.57-2.42 4.21-4 4.21-.95 0-1.62-.88-1.62-2.12 0-2.17 1.99-4.27 4.03-4.27zm-1.48 5.76c.57 0 1.38-1.47 1.38-3.31 0-.98-.39-1.84-.82-1.84-.61 0-1.38 1.5-1.38 3.3 0 1.07.34 1.86.82 1.86zM98.955 41.23c-.19 1.12-.55 2.1-1.47 3.02-.59.6-1.32.95-2.33.95-.91 0-1.55-.37-1.55-.91 0-.39.4-.74.85-.74.91 0 .88 1.12 1.57 1.12.53 0 .88-.62 1.04-1.62l1.11-6.7h-1.11l.07-.35c.36 0 .89-.15 1.17-.33.31-2.08 1.53-3.91 3.57-3.91.89 0 1.4.31 1.4.85 0 .43-.36.78-.8.78-.83 0-1.14-1.02-1.65-1.02-.36 0-.48.55-.68 1.84l-.24 1.47h1.07l-.15.68h-1.06l-.82 4.89zM119.045 33.63v.61c-.94 0-1.17.26-1.17 1.17v6.4h-1.03l-5.9-6.22v4.3c0 .86.13 1.22 1.24 1.22v.61h-3.35v-.61c.91 0 1.18-.19 1.18-1.29v-5.25c-.16-.15-.47-.34-1.09-.34v-.61h3.07l4.95 5.26v-3.49c0-.8-.14-1.16-1.2-1.16v-.61h3.29zM126.085 41.94c-3.66 0-4.79-2.4-4.79-4.2 0-2.19 1.56-4.31 5.13-4.31s4.71 2.4 4.71 4.17-1.09 4.35-5.05 4.35zm-.06-7.89c-1.17 0-2.41.83-2.41 3.08 0 2.46 1.18 4.18 2.89 4.18 1.29 0 2.32-1 2.32-3.1 0-2.46-1.14-4.17-2.8-4.17zM144.035 41.85h-1.6c-1.18 0-1.9-.22-2.46-.78-.85-.85-1.61-2.23-2.24-2.77h-.69v1.74c0 .96.38 1.08 1.39 1.08v.61h-4.93v-.61c1.09 0 1.35-.19 1.35-1.15v-4.54c0-.98-.23-1.19-1.35-1.19v-.61c.79-.05 1.33-.09 2.37-.14.82-.04 1.63-.06 2.07-.06 2.08 0 3.98.35 3.98 2.36 0 .99-.64 1.72-1.86 2.12.83.65 1.32 1.78 2.15 2.62.57.57 1.12.7 1.82.72v.61zm-6.99-4.19c1.89.03 2.57-.56 2.57-1.9 0-1.03-.66-1.7-1.93-1.7h-.64zM154.335 36.03h-.61c-.18-1.29-.43-1.58-1.29-1.58h-1.47v5.35c0 1.13.16 1.31 1.43 1.31v.61h-5.05v-.61c1.27 0 1.43-.18 1.43-1.31v-5.35h-1.55c-.61 0-1.03.25-1.21 1.58h-.61l.24-2.6h.56c.05.08.1.13.21.17.09.03.24.04.44.04h5.86c.61 0 .69-.01.82-.21h.56zM164.405 37.16v-1.63c0-1.03-.21-1.26-1.1-1.29v-.61h4.41v.61c-.95.03-1.13.26-1.13 1.12v4.46c0 .91.1 1.28 1.13 1.29v.61h-4.41v-.61c.85-.04 1.1-.25 1.1-1.26v-1.89h-3.91v1.93c0 .79.09 1.2 1.13 1.22v.61h-4.46v-.61c.9-.04 1.15-.19 1.15-1.26v-4.36c0-1.04-.29-1.25-1.15-1.25v-.61h4.46v.61c-.87.05-1.13.17-1.13 1.24v1.68zM185.035 39.18c-.1.74-.42 1.71-.79 2.59l-.04.09c-.12-.04-.25-.06-.38-.08-.12-.03-.26-.03-.42-.03-.35 0-.73.04-1.13.09-.39.04-.81.09-1.26.09-1.75 0-2.94-.59-3.68-1.39a4.07 4.07 0 0 1-1.07-2.72c0-1.3.52-2.38 1.43-3.17.9-.78 2.19-1.22 3.7-1.22 1.39 0 2.16.39 2.48.39.12 0 .18-.05.24-.18h.48l.12 2.72h-.61c-.14-.67-.47-1.21-.92-1.59-.46-.38-1.03-.59-1.68-.59-1.73 0-2.91 1.42-2.91 3.44 0 2.12 1.24 3.57 3.06 3.57 1.22 0 2.16-.66 2.79-2.01h.61zM196.545 41.73h-4.73v-.61c.89 0 1.2-.1 1.2-.44 0-.17-.09-.48-.28-.96l-.3-.77h-2.86l-.24.69c-.18.53-.29.9-.29 1 0 .35.43.48 1.15.48v.61h-3.35v-.61c.96 0 1.08-.22 1.55-1.57l2.03-5.83-.12-.29h2.34l2.37 6.16c.47 1.21.76 1.5 1.51 1.53v.61zm-5.59-6.68-1.08 3.08h2.28zM209.445 41.85h-1.6c-1.17 0-1.9-.22-2.46-.78-.85-.85-1.61-2.23-2.24-2.77h-.69v1.74c0 .96.38 1.08 1.39 1.08v.61h-4.93v-.61c1.09 0 1.35-.19 1.35-1.15v-4.54c0-.98-.23-1.19-1.35-1.19v-.61c.79-.05 1.33-.09 2.37-.14.82-.04 1.63-.06 2.07-.06 2.08 0 3.98.35 3.98 2.36 0 .99-.64 1.72-1.86 2.12.83.65 1.31 1.78 2.15 2.62.57.57 1.12.7 1.82.72v.61zm-6.99-4.19c1.89.03 2.56-.56 2.56-1.9 0-1.03-.66-1.7-1.93-1.7h-.64v3.6zM215.575 41.94c-3.65 0-4.79-2.4-4.79-4.2 0-2.19 1.57-4.31 5.13-4.31s4.71 2.4 4.71 4.17-1.09 4.35-5.05 4.35zm-.07-7.89c-1.17 0-2.41.83-2.41 3.08 0 2.46 1.19 4.18 2.89 4.18 1.29 0 2.32-1 2.32-3.1 0-2.46-1.15-4.17-2.8-4.17zM228.055 33.63v.61c-1.1 0-1.32.21-1.32 1.24V40c0 .79.09.92.96.92h.99c.79 0 1.07-.03 2.16-1.55h.61l-.99 2.36h-7.2v-.61c1.13 0 1.27-.34 1.27-1.26v-4.37c0-.94-.14-1.24-1.27-1.24v-.61h4.79zM233.995 41.73v-.61c.93 0 1.12-.34 1.12-1.17V35.5c0-.91-.18-1.25-1.12-1.25v-.61h4.49v.61c-1.04 0-1.19.34-1.19 1.25v4.37c0 .81.08 1.25 1.19 1.25v.61zM252.005 33.63v.61c-.94 0-1.17.26-1.17 1.17v6.4h-1.03l-5.89-6.22v4.3c0 .86.13 1.22 1.23 1.22v.61h-3.34v-.61c.91 0 1.18-.19 1.18-1.29v-5.25c-.16-.15-.47-.34-1.1-.34v-.61h3.07l4.95 5.26v-3.49c0-.8-.14-1.16-1.2-1.16v-.61h3.29zM262.965 41.73h-4.73v-.61c.88 0 1.2-.1 1.2-.44 0-.17-.09-.48-.27-.96l-.3-.77h-2.86l-.24.69c-.18.53-.29.9-.29 1 0 .35.43.48 1.14.48v.61h-3.34v-.61c.96 0 1.08-.22 1.55-1.57l2.03-5.83-.12-.29h2.35l2.37 6.16c.47 1.21.76 1.5 1.51 1.53zm-5.59-6.68-1.08 3.08h2.27zM94.405 59.51c-.07.33-.1.56.06.56s.71-.5 1.03-.88v.49c-.76.8-1.56 1.43-2.12 1.43-.39 0-.6-.33-.6-.89 0-.27 0-.4.1-.94h-.03c-.94.97-1.78 1.83-2.23 1.83-.34 0-1.03-.42-1.03-1.44 0-.97.34-2.19 1.62-3.46 1.22-1.2 2.26-1.49 4.18-1.49zm-.8-3.88c-.76 0-1.25.22-1.71.68-.5.51-.92 1.56-.92 2.41 0 .61.24 1.02.61 1.02.34 0 .8-.46 1.41-1.08zM99.125 59.74c-.06.27.07.48.27.48s.71-.39 1.14-.88l.27.28c-.77.88-1.78 1.49-2.51 1.49-.55 0-.94-.43-.77-1.26l.88-4.29h-.73l.06-.33c.98-.33 1.81-1.11 2.69-2.33h.39c-.28.6-.48 1.17-.68 1.98h1.17l-.13.69h-1.17l-.86 4.19zM117.675 58.4c-.1.74-.42 1.7-.79 2.59l-.04.09c-.12-.04-.25-.06-.38-.08-.12-.03-.26-.03-.42-.03-.35 0-.73.04-1.13.09-.39.04-.81.09-1.26.09-1.74 0-2.94-.59-3.68-1.39a4.07 4.07 0 0 1-1.07-2.72c0-1.3.52-2.38 1.43-3.17.9-.78 2.19-1.22 3.7-1.22 1.39 0 2.16.39 2.49.39.12 0 .18-.05.24-.18h.48l.12 2.72h-.61c-.14-.66-.47-1.21-.92-1.59-.46-.38-1.03-.58-1.68-.58-1.73 0-2.92 1.42-2.92 3.44 0 2.12 1.24 3.57 3.06 3.57 1.22 0 2.16-.66 2.79-2h.61zM127.885 54.76c0-1.03-.21-1.26-1.09-1.29v-.61h4.41v.61c-.95.03-1.13.26-1.13 1.12v4.47c0 .91.1 1.27 1.13 1.29v.61h-4.41v-.61c.85-.04 1.09-.25 1.09-1.26V57.2h-3.91v1.93c0 .79.09 1.2 1.13 1.22v.61h-4.46v-.61c.9-.04 1.15-.19 1.15-1.26v-4.36c0-1.04-.29-1.25-1.15-1.25v-.61h4.46v.61c-.87.05-1.13.17-1.13 1.24v1.68h3.91zM142.985 60.95h-4.73v-.61c.89 0 1.2-.1 1.2-.44 0-.17-.09-.48-.27-.96l-.3-.77h-2.86l-.24.69c-.18.53-.29.9-.29 1 0 .35.43.48 1.15.48v.61h-3.35v-.61c.96 0 1.08-.22 1.55-1.58l2.03-5.83-.12-.29h2.34l2.37 6.16c.47 1.21.76 1.5 1.51 1.54v.61zm-5.59-6.68-1.08 3.09h2.28zM146.425 55.08c0-1.39-.05-1.55-1.16-1.61v-.61c.72-.04 1.68-.1 2.56-.14.87-.04 1.6-.07 1.8-.07 2.2 0 3.64.89 3.64 2.53 0 1.11-.76 2.55-3.24 2.55-.42 0-1.04-.06-1.42-.14v1.73c0 .77.23 1.03 1.47 1.03v.61h-4.82v-.61c.93 0 1.16-.26 1.16-1.26v-4zm2.18 1.86c.21.05.4.06.61.06 1.08 0 1.73-.72 1.73-1.9s-.61-1.83-1.61-1.83c-.26 0-.52.03-.73.09zM163.405 52.85l.12 1.94h-.61c-.12-.88-.31-1.13-.95-1.13h-2.55v2.84h1.68c.93 0 1.17-.19 1.17-.99h.61v2.72h-.61c0-.73-.21-.92-1.15-.92h-1.69v2.1c0 .69.08.74.78.74h1.51c1.14 0 1.43-.49 1.63-1.35h.61l-.17 2.16h-7.94v-.61c1.18 0 1.39-.27 1.39-1.2v-4.48c0-1.11-.38-1.2-1.3-1.2v-.61h7.48zM171.935 52.85v.61c-1.11 0-1.33.21-1.33 1.24v4.52c0 .8.09.93.96.93h.99c.79 0 1.07-.03 2.16-1.55h.61l-.99 2.36h-7.2v-.61c1.13 0 1.27-.34 1.27-1.26v-4.38c0-.94-.15-1.24-1.27-1.24v-.61h4.79zM190.265 54.76c0-1.03-.21-1.26-1.09-1.29v-.61h4.41v.61c-.95.03-1.13.26-1.13 1.12v4.47c0 .91.1 1.27 1.13 1.29v.61h-4.41v-.61c.85-.04 1.09-.25 1.09-1.26V57.2h-3.9v1.93c0 .79.09 1.2 1.13 1.22v.61h-4.46v-.61c.9-.04 1.15-.19 1.15-1.26v-4.36c0-1.04-.29-1.25-1.15-1.25v-.61h4.46v.61c-.87.05-1.13.17-1.13 1.24v1.68h3.9zM197.085 60.34c.92 0 1.12-.34 1.12-1.17v-4.45c0-.91-.18-1.25-1.12-1.25v-.61h4.49v.61c-1.04 0-1.19.34-1.19 1.25v4.38c0 .81.08 1.25 1.19 1.25v.61h-4.49zM209.415 52.85v.61c-1.1 0-1.33.21-1.33 1.24v4.52c0 .8.09.93.96.93h.99c.79 0 1.07-.03 2.16-1.55h.61l-.99 2.36h-7.2v-.61c1.13 0 1.27-.34 1.27-1.26v-4.38c0-.94-.14-1.24-1.27-1.24v-.61h4.79zM219.125 52.85v.61c-1.11 0-1.33.21-1.33 1.24v4.52c0 .8.09.93.96.93h.99c.79 0 1.07-.03 2.16-1.55h.61l-.99 2.36h-7.2v-.61c1.13 0 1.27-.34 1.27-1.26v-4.38c0-.94-.14-1.24-1.27-1.24v-.61h4.79z"/></svg>