<svg width="263" height="74" viewBox="0 0 263 74" fill="none" xmlns="http://www.w3.org/2000/svg">
<path d="M25.5249 21.19C25.6349 21.3 25.7049 21.28 25.7049 21.28C34.1549 20.95 39.0049 24.16 39.4149 25.48L42.7949 25.42L43.8449 23.14C43.9049 22.95 43.8749 22.67 43.8049 22.6C42.7849 21.47 34.2849 19.04 24.0149 19.04C13.0649 19.04 6.11491 21.2 4.65491 22.29C4.65491 22.29 4.30491 22.5 4.29491 22.82C4.29491 22.97 4.50491 23.38 4.50491 23.38L4.80491 24.03C4.89491 24.22 5.02491 24.21 5.25491 24.08C5.25491 24.08 5.45491 24.02 5.49491 23.89C5.53491 23.76 5.41491 23.53 5.41491 23.53C5.19491 23.09 5.48491 23.03 5.50491 23.02L6.13491 22.74C6.43491 22.65 6.46491 22.81 6.56491 23.05C6.56491 23.05 6.67491 23.38 6.76491 23.43C6.92491 23.53 7.42491 23.24 8.91491 22.88C9.01491 22.86 9.07491 22.85 9.26491 22.77C9.41491 22.71 9.28491 22.21 9.28491 22.21C9.23491 21.96 9.11491 21.71 9.66491 21.62L10.5949 21.43C11.0249 21.32 11.0749 21.54 11.1249 21.79C11.1249 21.79 11.1549 22.17 11.2449 22.32C11.3649 22.52 11.5949 22.2 14.4349 21.9C14.4349 21.9 14.8449 21.89 14.9349 21.75C15.0249 21.6 14.9549 21.26 14.9549 21.26C14.9249 20.92 14.7849 20.66 15.4449 20.62L16.6949 20.51C17.6249 20.36 17.4649 20.67 17.5049 21.01C17.5049 21.01 17.5349 21.38 17.6049 21.45C17.6749 21.52 17.9649 21.51 17.9649 21.51C19.5649 21.35 20.4549 21.35 22.1549 21.28C22.1549 21.28 22.3949 21.28 22.4849 21.18C22.5649 21.08 22.5449 20.98 22.5449 20.98C22.5449 20.79 22.5049 20.48 22.6249 20.35C22.7649 20.2 22.9849 20.27 23.2049 20.27H24.6349C24.8549 20.27 25.3049 20.17 25.4349 20.33C25.5149 20.43 25.4949 21.04 25.4949 21.04C25.4949 21.04 25.4949 21.14 25.5549 21.2L25.5249 21.19Z" fill="#050505"></path>
<path d="M24.0949 7.45001C15.8249 7.45001 10.7449 10.1 7.49491 13.3C7.49491 13.3 7.43491 13.36 7.40491 13.44C7.34491 13.6 7.32491 13.84 7.66491 13.73C14.7449 10.76 22.4749 12.62 24.9449 15.42C25.0349 15.55 24.9449 15.58 24.8449 15.58C22.3549 15.6 20.2649 15.46 15.6649 16.1C13.1749 16.45 10.9649 16.81 9.09491 17.3C6.01491 18.1 3.83491 19.1 2.61491 19.91C2.16491 20.15 2.13491 20.33 2.02491 20.53C1.89491 20.93 1.90491 20.93 1.82491 21.2C1.67491 21.72 1.59491 22.05 1.56491 22.22C1.51491 22.53 1.85491 22.42 2.03491 22.24C2.40491 21.87 3.42491 20.97 4.91491 20.28C6.43491 19.57 8.94491 18.77 11.6749 18.26C15.3149 17.59 19.7449 17.16 23.7849 17.15C28.4749 17.14 32.6849 17.63 36.2049 18.31C39.7849 19.01 42.6149 19.98 44.4349 20.87C45.2949 21.29 45.7749 21.67 46.3549 22.16C46.8149 22.63 46.8349 22.22 46.8249 22.1C46.8249 22.1 46.7349 21.48 45.9749 20.08C43.6349 15.79 37.3949 7.44001 24.0849 7.44001" fill="#050505"></path>
<path d="M0.0749121 62.73C0.0749121 64.65 8.05491 68.59 24.5549 68.59C41.0549 68.59 49.0349 64.65 49.0349 62.74L48.9549 59.8C48.9549 59.86 48.9449 59.61 48.9149 59.68C48.8849 59.15 48.0349 59.04 45.4549 59.01L45.3949 57.38C45.3949 57.55 44.8449 57.9 44.5049 58.1C42.3949 59.32 34.3349 61.13 24.2549 61.13C12.5749 61.13 4.40491 58.71 3.11491 57.38L3.08491 59.9C6.92491 62.64 18.7649 65.11 30.7149 63.84C31.0749 63.83 31.1949 63.76 31.5549 63.86C31.6549 63.89 31.9849 64.18 31.3249 64.42C24.3949 66.71 7.27491 66.2 0.0349121 60.7L0.0649121 62.77" fill="#050505"></path>
<path d="M34.2249 24.7H34.3749C34.3749 24.7 34.3249 24.7 34.3049 24.7C34.2749 24.7 34.2549 24.7 34.2349 24.7H34.2249Z" fill="#050505"></path>
<path d="M34.0549 25.32C34.0549 25.32 34.0549 25.34 34.0549 25.35V24.83C34.0549 24.83 34.0549 24.85 34.0549 24.86V25.32Z" fill="#050505"></path>
<path d="M29.6749 24.51C29.6749 24.51 29.6849 24.51 29.6949 24.51H29.6549C29.6549 24.51 29.6649 24.51 29.6749 24.51Z" fill="#050505"></path>
<path d="M34.3449 23.52H29.8249C29.6049 23.52 29.5049 23.62 29.5049 23.84V24.35C29.5049 24.59 29.6049 24.69 29.8449 24.7H31.2449C31.3749 24.7 31.4049 24.75 31.4149 24.77C31.4749 24.91 31.2149 25.03 31.1249 25.09L30.4349 25.54C30.3349 25.6 30.2449 25.72 30.2549 25.97L30.2249 58.32C30.2949 58.89 31.1949 58.94 32.1749 58.94C33.0049 58.94 33.9849 58.89 34.0849 58.34C34.0849 58.34 34.0549 27.55 34.0849 24.9C34.0849 24.78 34.1449 24.75 34.1649 24.74C34.1949 24.72 34.3349 24.71 34.3349 24.71C34.5449 24.71 34.6549 24.6 34.6549 24.4V23.85C34.6549 23.65 34.5149 23.55 34.3449 23.54V23.52Z" fill="#050505"></path>
<path d="M26.9249 46.02L27.0349 45.8H27.3449V45.6H21.0749V45.8H21.4049L21.4949 46L21.8749 46.79C21.8749 46.79 21.9449 46.86 22.0249 46.9C22.1049 46.93 22.2749 46.95 22.3249 46.95C23.9749 46.96 23.6149 46.95 23.8749 46.95C23.9949 46.95 24.1649 46.95 24.2449 47.05C24.3049 47.12 24.3449 47.31 24.1149 47.46C23.5749 47.82 22.6849 48.4 22.2649 48.68C22.2149 48.71 22.0749 48.8 22.0249 48.92C21.9749 49.05 21.9849 49.15 21.9849 49.15V55.23L21.4549 55.44C21.4549 55.44 21.2949 56.65 21.4749 56.78C21.6549 56.9 26.7549 56.9 26.9349 56.78C27.1149 56.67 26.9549 55.41 26.9549 55.41L26.4149 55.23V47.07L26.9249 46.03V46.02Z" fill="#050505"></path>
<path d="M43.0949 25.28H38.5749C38.3549 25.28 38.2549 25.38 38.2449 25.61V26.11C38.2449 26.35 38.3449 26.45 38.5849 26.46H39.9849C40.1149 26.46 40.1449 26.51 40.1549 26.53C40.2149 26.67 39.9549 26.79 39.8649 26.85L39.1749 27.3C39.0749 27.36 38.9849 27.48 38.9949 27.73L38.9649 56.89C39.0349 57.46 39.9349 57.51 40.9149 57.51C41.7449 57.51 42.7249 57.46 42.8349 56.91C42.8349 56.91 42.8049 29.31 42.8349 26.65C42.8349 26.53 42.8949 26.5 42.9049 26.49C42.9349 26.47 43.0749 26.46 43.0749 26.46C43.2849 26.46 43.3949 26.35 43.3949 26.15V25.61C43.3949 25.41 43.2549 25.31 43.0849 25.3L43.0949 25.28Z" fill="#050505"></path>
<path d="M18.4249 23.52H13.9149C13.6949 23.52 13.5949 23.63 13.5949 23.85V24.35C13.5949 24.59 13.6949 24.69 13.9349 24.69H15.3349C15.4649 24.69 15.4949 24.75 15.5049 24.76C15.5649 24.9 15.3049 25.02 15.2149 25.08L14.5249 25.53C14.4249 25.59 14.3349 25.72 14.3349 25.96L14.3049 58.31C14.3749 58.87 15.2749 58.93 16.2549 58.92C17.0849 58.92 18.0649 58.87 18.1649 58.32C18.1649 58.32 18.1449 27.54 18.1649 24.88C18.1649 24.76 18.2249 24.73 18.2449 24.72C18.2749 24.7 18.4149 24.69 18.4149 24.69C18.6249 24.69 18.7349 24.58 18.7349 24.38V23.83C18.7249 23.63 18.5949 23.53 18.4149 23.52H18.4249Z" fill="#050505"></path>
<path d="M9.64491 25.37H5.12491C4.90491 25.37 4.80491 25.48 4.80491 25.7V26.2C4.80491 26.44 4.90491 26.54 5.14491 26.54H6.54491C6.67491 26.54 6.70491 26.6 6.71491 26.61C6.76491 26.75 6.51491 26.87 6.42491 26.93L5.73491 27.38C5.63491 27.44 5.54491 27.57 5.55491 27.81L5.52491 56.98C5.59491 57.54 6.49491 57.6 7.47491 57.6C8.30491 57.6 9.28491 57.55 9.38491 57C9.38491 57 9.35491 29.4 9.38491 26.74C9.38491 26.62 9.43491 26.59 9.45491 26.58C9.48491 26.56 9.62491 26.55 9.62491 26.55C9.83491 26.55 9.94491 26.45 9.94491 26.24V25.7C9.93491 25.5 9.80491 25.39 9.63491 25.39L9.64491 25.37Z" fill="#050505"></path>
<path d="M98.3649 16.81H97.7549C97.5749 15.52 97.3249 15.24 96.4649 15.24H94.9949V20.59C94.9949 21.72 95.1549 21.9 96.4249 21.9V22.51H91.3749V21.9C92.6549 21.9 92.8049 21.72 92.8049 20.59V15.24H91.2549C90.6449 15.24 90.2249 15.49 90.0449 16.81H89.4349L89.6849 14.21H90.2449C90.2949 14.29 90.3549 14.34 90.4549 14.38C90.5449 14.4 90.6949 14.42 90.8949 14.42H96.7549C97.3649 14.42 97.4449 14.41 97.5749 14.21H98.1349L98.3649 16.81Z" fill="#050505"></path>
<path d="M108.685 16.31C108.685 15.28 108.475 15.05 107.595 15.02V14.41H112.005V15.02C111.055 15.04 110.875 15.28 110.875 16.14V20.61C110.875 21.52 110.975 21.88 112.005 21.9V22.51H107.595V21.9C108.445 21.86 108.685 21.65 108.685 20.64V18.75H104.785V20.68C104.785 21.47 104.875 21.88 105.915 21.9V22.51H101.455V21.9C102.355 21.86 102.595 21.7 102.595 20.64V16.28C102.595 15.24 102.305 15.03 101.455 15.03V14.42H105.915V15.03C105.045 15.08 104.785 15.2 104.785 16.27V17.95H108.685V16.31Z" fill="#050505"></path>
<path d="M122.915 14.42L123.035 16.36H122.425C122.305 15.48 122.115 15.23 121.475 15.23H118.925V18.07H120.605C121.535 18.07 121.775 17.88 121.775 17.08H122.385V19.8H121.775C121.775 19.07 121.565 18.88 120.615 18.88H118.925V20.98C118.925 21.67 119.005 21.72 119.705 21.72H121.215C122.345 21.72 122.645 21.23 122.845 20.37H123.455L123.285 22.53H115.345V21.92C116.525 21.92 116.735 21.65 116.735 20.72V16.24C116.735 15.14 116.355 15.04 115.435 15.04V14.43H122.925L122.915 14.42Z" fill="#050505"></path>
<path d="M141.635 14.42V15.03C140.545 15.03 140.325 15.22 140.325 16.27V19.15C140.325 21.75 138.715 22.73 136.485 22.73C134.115 22.73 132.565 21.68 132.565 19.75V16.3C132.565 15.41 132.385 15.04 131.475 15.04V14.43H135.915V15.04C134.975 15.04 134.755 15.31 134.755 16.19V19.65C134.755 20.86 135.405 21.62 137.015 21.62C138.745 21.62 139.405 20.7 139.405 19.04V16.3C139.405 15.29 139.155 15.05 138.105 15.05V14.44H141.645L141.635 14.42Z" fill="#050505"></path>
<path d="M154.705 14.42V15.03C153.765 15.03 153.535 15.29 153.535 16.2V22.6H152.505L146.605 16.38V20.68C146.605 21.54 146.735 21.9 147.845 21.9V22.51H144.495V21.9C145.405 21.9 145.675 21.7 145.675 20.61V15.36C145.525 15.2 145.205 15.02 144.585 15.02V14.41H147.655L152.605 19.67V16.18C152.605 15.38 152.465 15.02 151.405 15.02V14.41H154.695L154.705 14.42Z" fill="#050505"></path>
<path d="M157.765 22.51V21.9C158.685 21.9 158.885 21.56 158.885 20.73V16.28C158.885 15.37 158.705 15.03 157.765 15.03V14.42H162.255V15.03C161.215 15.03 161.065 15.37 161.065 16.28V20.65C161.065 21.46 161.145 21.9 162.255 21.9V22.51H157.765Z" fill="#050505"></path>
<path d="M174.545 15.03C173.595 15.03 173.365 15.21 172.785 16.49L169.965 22.72H169.015L166.285 16.65C165.605 15.14 165.465 15.02 164.595 15.02V14.41H169.505V15.02C168.545 15.02 168.175 15.2 168.175 15.54C168.175 15.71 168.255 15.96 168.425 16.33L170.155 20.12L171.655 16.77C172.015 15.95 172.115 15.72 172.115 15.49C172.115 15.15 171.775 14.98 170.965 15.01V14.4H174.565V15.01L174.545 15.03Z" fill="#050505"></path>
<path d="M183.745 14.42L183.865 16.36H183.255C183.135 15.48 182.945 15.23 182.305 15.23H179.755V18.07H181.435C182.355 18.07 182.605 17.88 182.605 17.08H183.215V19.8H182.605C182.605 19.07 182.395 18.88 181.445 18.88H179.755V20.98C179.755 21.67 179.835 21.72 180.535 21.72H182.045C183.175 21.72 183.475 21.23 183.675 20.37H184.285L184.125 22.53H176.185V21.92C177.375 21.92 177.585 21.65 177.585 20.72V16.24C177.585 15.14 177.205 15.04 176.285 15.04V14.43H183.775L183.745 14.42Z" fill="#050505"></path>
<path d="M198.225 22.63H196.625C195.455 22.63 194.725 22.41 194.165 21.85C193.315 21.01 192.545 19.62 191.925 19.08H191.235V20.82C191.235 21.78 191.615 21.9 192.635 21.9V22.51H187.705V21.9C188.805 21.9 189.055 21.7 189.055 20.75V16.21C189.055 15.23 188.825 15.03 187.705 15.03V14.42C188.495 14.37 189.035 14.33 190.075 14.28C190.895 14.24 191.705 14.22 192.145 14.22C194.225 14.22 196.125 14.57 196.125 16.58C196.125 17.57 195.485 18.3 194.265 18.7C195.095 19.35 195.575 20.48 196.415 21.32C196.985 21.89 197.535 22.02 198.235 22.04V22.65L198.225 22.63ZM191.235 18.44C193.125 18.47 193.805 17.88 193.805 16.54C193.805 15.51 193.145 14.84 191.875 14.84H191.235V18.44Z" fill="#050505"></path>
<path d="M200.555 20.05C200.925 21.3 201.775 22.03 202.855 22.03C203.645 22.03 204.195 21.55 204.195 20.87C204.195 19.15 200.055 18.98 200.055 16.46C200.055 15.54 200.695 14.21 202.825 14.21C203.785 14.21 204.465 14.47 204.845 14.47C204.985 14.47 205.065 14.43 205.135 14.3H205.565L205.785 16.62H205.175C204.825 15.5 203.915 14.9 202.975 14.9C202.295 14.9 201.825 15.24 201.825 15.72C201.825 17.07 206.175 17.45 206.175 20.25C206.175 21.72 204.935 22.72 203.135 22.72C202.205 22.72 201.255 22.43 201.035 22.43C200.815 22.43 200.735 22.55 200.705 22.62H200.285L199.935 20.04H200.545L200.555 20.05Z" fill="#050505"></path>
<path d="M209.375 22.51V21.9C210.295 21.9 210.495 21.56 210.495 20.73V16.28C210.495 15.37 210.315 15.03 209.375 15.03V14.42H213.865V15.03C212.825 15.03 212.685 15.37 212.685 16.28V20.65C212.685 21.46 212.765 21.9 213.865 21.9V22.51H209.375Z" fill="#050505"></path>
<path d="M225.535 16.81H224.925C224.745 15.52 224.495 15.24 223.635 15.24H222.165V20.59C222.165 21.72 222.325 21.9 223.595 21.9V22.51H218.545V21.9C219.815 21.9 219.975 21.72 219.975 20.59V15.24H218.425C217.815 15.24 217.395 15.49 217.215 16.81H216.605L216.855 14.21H217.415C217.465 14.29 217.515 14.34 217.625 14.38C217.715 14.4 217.865 14.42 218.065 14.42H223.925C224.535 14.42 224.615 14.41 224.745 14.21H225.305L225.535 16.81Z" fill="#050505"></path>
<path d="M237.345 15.03C236.455 15.03 236.235 15.21 235.535 16.29L233.625 19.23V20.66C233.625 21.6 233.755 21.9 234.915 21.9V22.51H230.135V21.9C231.285 21.9 231.435 21.59 231.435 20.65V19.31L229.035 16.07C228.415 15.22 228.165 15.03 227.425 15.03V14.42H232.115V15.03C231.475 15.03 231.225 15.11 231.225 15.35C231.225 15.45 231.315 15.62 231.435 15.78L233.255 18.25L234.565 16.19C234.795 15.81 234.905 15.59 234.905 15.43C234.905 15.13 234.685 15.01 234.045 15.01V14.4H237.335V15.01L237.345 15.03Z" fill="#050505"></path>
<path d="M93.7349 35.51C94.7049 35.51 95.3249 36.37 95.3249 37.7C95.3249 40.27 92.9049 41.91 91.3249 41.91C90.3749 41.91 89.7049 41.03 89.7049 39.79C89.7049 37.62 91.6949 35.52 93.7349 35.52V35.51ZM92.2549 41.27C92.8249 41.27 93.6349 39.8 93.6349 37.96C93.6349 36.98 93.2449 36.12 92.8149 36.12C92.2049 36.12 91.4349 37.62 91.4349 39.42C91.4349 40.49 91.7749 41.28 92.2549 41.28V41.27Z" fill="#050505"></path>
<path d="M98.9549 41.23C98.7649 42.35 98.4049 43.33 97.4849 44.25C96.8949 44.85 96.1649 45.2 95.1549 45.2C94.2449 45.2 93.6049 44.83 93.6049 44.29C93.6049 43.9 94.0049 43.55 94.4549 43.55C95.3649 43.55 95.3349 44.67 96.0249 44.67C96.5549 44.67 96.9049 44.05 97.0649 43.05L98.1749 36.35H97.0649L97.1349 36C97.4949 36 98.0249 35.85 98.3049 35.67C98.6149 33.59 99.8349 31.76 101.875 31.76C102.765 31.76 103.275 32.07 103.275 32.61C103.275 33.04 102.915 33.39 102.475 33.39C101.645 33.39 101.335 32.37 100.825 32.37C100.465 32.37 100.345 32.92 100.145 34.21L99.9049 35.68H100.975L100.825 36.36H99.7649L98.9449 41.25L98.9549 41.23Z" fill="#050505"></path>
<path d="M119.045 33.63V34.24C118.105 34.24 117.875 34.5 117.875 35.41V41.81H116.845L110.945 35.59V39.89C110.945 40.75 111.075 41.11 112.185 41.11V41.72H108.835V41.11C109.745 41.11 110.015 40.92 110.015 39.82V34.57C109.855 34.42 109.545 34.23 108.925 34.23V33.62H111.995L116.945 38.88V35.39C116.945 34.59 116.805 34.23 115.745 34.23V33.62H119.035L119.045 33.63Z" fill="#050505"></path>
<path d="M126.085 41.94C122.425 41.94 121.295 39.54 121.295 37.74C121.295 35.55 122.855 33.43 126.425 33.43C129.995 33.43 131.135 35.83 131.135 37.6C131.135 39.37 130.045 41.95 126.085 41.95V41.94ZM126.025 34.05C124.855 34.05 123.615 34.88 123.615 37.13C123.615 39.59 124.795 41.31 126.505 41.31C127.795 41.31 128.825 40.31 128.825 38.21C128.825 35.75 127.685 34.04 126.025 34.04V34.05Z" fill="#050505"></path>
<path d="M144.035 41.85H142.435C141.255 41.85 140.535 41.63 139.975 41.07C139.125 40.22 138.365 38.84 137.735 38.3H137.045V40.04C137.045 41 137.425 41.12 138.435 41.12V41.73H133.505V41.12C134.595 41.12 134.855 40.93 134.855 39.97V35.43C134.855 34.45 134.625 34.24 133.505 34.24V33.63C134.295 33.58 134.835 33.54 135.875 33.49C136.695 33.45 137.505 33.43 137.945 33.43C140.025 33.43 141.925 33.78 141.925 35.79C141.925 36.78 141.285 37.51 140.065 37.91C140.895 38.56 141.385 39.69 142.215 40.53C142.785 41.1 143.335 41.23 144.035 41.25V41.86V41.85ZM137.045 37.66C138.935 37.69 139.615 37.1 139.615 35.76C139.615 34.73 138.955 34.06 137.685 34.06H137.045V37.66Z" fill="#050505"></path>
<path d="M154.335 36.03H153.725C153.545 34.74 153.295 34.45 152.435 34.45H150.965V39.8C150.965 40.93 151.125 41.11 152.395 41.11V41.72H147.345V41.11C148.615 41.11 148.775 40.93 148.775 39.8V34.45H147.225C146.615 34.45 146.195 34.7 146.015 36.03H145.405L145.645 33.43H146.205C146.255 33.51 146.305 33.56 146.415 33.6C146.505 33.63 146.655 33.64 146.855 33.64H152.715C153.325 33.64 153.405 33.63 153.535 33.43H154.095L154.335 36.03Z" fill="#050505"></path>
<path d="M164.405 37.16V35.53C164.405 34.5 164.195 34.27 163.305 34.24V33.63H167.715V34.24C166.765 34.27 166.585 34.5 166.585 35.36V39.82C166.585 40.73 166.685 41.1 167.715 41.11V41.72H163.305V41.11C164.155 41.07 164.405 40.86 164.405 39.85V37.96H160.495V39.89C160.495 40.68 160.585 41.09 161.625 41.11V41.72H157.165V41.11C158.065 41.07 158.315 40.92 158.315 39.85V35.49C158.315 34.45 158.025 34.24 157.165 34.24V33.63H161.625V34.24C160.755 34.29 160.495 34.41 160.495 35.48V37.16H164.405Z" fill="#050505"></path>
<path d="M185.035 39.18C184.935 39.92 184.615 40.89 184.245 41.77L184.205 41.86C184.085 41.82 183.955 41.8 183.825 41.78C183.705 41.75 183.565 41.75 183.405 41.75C183.055 41.75 182.675 41.79 182.275 41.84C181.885 41.88 181.465 41.93 181.015 41.93C179.265 41.93 178.075 41.34 177.335 40.54C176.595 39.73 176.265 38.72 176.265 37.82C176.265 36.52 176.785 35.44 177.695 34.65C178.595 33.87 179.885 33.43 181.395 33.43C182.785 33.43 183.555 33.82 183.875 33.82C183.995 33.82 184.055 33.77 184.115 33.64H184.595L184.715 36.36H184.105C183.965 35.69 183.635 35.15 183.185 34.77C182.725 34.39 182.155 34.18 181.505 34.18C179.775 34.18 178.595 35.6 178.595 37.62C178.595 39.74 179.835 41.19 181.655 41.19C182.875 41.19 183.815 40.53 184.445 39.18H185.055H185.035Z" fill="#050505"></path>
<path d="M196.545 41.73H191.815V41.12C192.705 41.12 193.015 41.02 193.015 40.68C193.015 40.51 192.925 40.2 192.735 39.72L192.435 38.95H189.575L189.335 39.64C189.155 40.17 189.045 40.54 189.045 40.64C189.045 40.99 189.475 41.12 190.195 41.12V41.73H186.845V41.12C187.805 41.12 187.925 40.9 188.395 39.55L190.425 33.72L190.305 33.43H192.645L195.015 39.59C195.485 40.8 195.775 41.09 196.525 41.12V41.73H196.545ZM190.955 35.05L189.875 38.13H192.155L190.955 35.05Z" fill="#050505"></path>
<path d="M209.445 41.85H207.845C206.675 41.85 205.945 41.63 205.385 41.07C204.535 40.22 203.775 38.84 203.145 38.3H202.455V40.04C202.455 41 202.835 41.12 203.845 41.12V41.73H198.915V41.12C200.005 41.12 200.265 40.93 200.265 39.97V35.43C200.265 34.45 200.035 34.24 198.915 34.24V33.63C199.705 33.58 200.245 33.54 201.285 33.49C202.105 33.45 202.915 33.43 203.355 33.43C205.435 33.43 207.335 33.78 207.335 35.79C207.335 36.78 206.695 37.51 205.475 37.91C206.305 38.56 206.785 39.69 207.625 40.53C208.195 41.1 208.745 41.23 209.445 41.25V41.86V41.85ZM202.455 37.66C204.345 37.69 205.015 37.1 205.015 35.76C205.015 34.73 204.355 34.06 203.085 34.06H202.445V37.66H202.455Z" fill="#050505"></path>
<path d="M215.575 41.94C211.925 41.94 210.785 39.54 210.785 37.74C210.785 35.55 212.355 33.43 215.915 33.43C219.475 33.43 220.625 35.83 220.625 37.6C220.625 39.37 219.535 41.95 215.575 41.95V41.94ZM215.505 34.05C214.335 34.05 213.095 34.88 213.095 37.13C213.095 39.59 214.285 41.31 215.985 41.31C217.275 41.31 218.305 40.31 218.305 38.21C218.305 35.75 217.155 34.04 215.505 34.04V34.05Z" fill="#050505"></path>
<path d="M228.055 33.63V34.24C226.955 34.24 226.735 34.45 226.735 35.48V40C226.735 40.79 226.825 40.92 227.695 40.92H228.685C229.475 40.92 229.755 40.89 230.845 39.37H231.455L230.465 41.73H223.265V41.12C224.395 41.12 224.535 40.78 224.535 39.86V35.49C224.535 34.55 224.395 34.25 223.265 34.25V33.64H228.055V33.63Z" fill="#050505"></path>
<path d="M233.995 41.73V41.12C234.925 41.12 235.115 40.78 235.115 39.95V35.5C235.115 34.59 234.935 34.25 233.995 34.25V33.64H238.485V34.25C237.445 34.25 237.295 34.59 237.295 35.5V39.87C237.295 40.68 237.375 41.12 238.485 41.12V41.73H233.995Z" fill="#050505"></path>
<path d="M252.005 33.63V34.24C251.065 34.24 250.835 34.5 250.835 35.41V41.81H249.805L243.915 35.59V39.89C243.915 40.75 244.045 41.11 245.145 41.11V41.72H241.805V41.11C242.715 41.11 242.985 40.92 242.985 39.82V34.57C242.825 34.42 242.515 34.23 241.885 34.23V33.62H244.955L249.905 38.88V35.39C249.905 34.59 249.765 34.23 248.705 34.23V33.62H251.995L252.005 33.63Z" fill="#050505"></path>
<path d="M262.965 41.73H258.235V41.12C259.115 41.12 259.435 41.02 259.435 40.68C259.435 40.51 259.345 40.2 259.165 39.72L258.865 38.95H256.005L255.765 39.64C255.585 40.17 255.475 40.54 255.475 40.64C255.475 40.99 255.905 41.12 256.615 41.12V41.73H253.275V41.12C254.235 41.12 254.355 40.9 254.825 39.55L256.855 33.72L256.735 33.43H259.085L261.455 39.59C261.925 40.8 262.215 41.09 262.965 41.12V41.73ZM257.375 35.05L256.295 38.13H258.565L257.375 35.05Z" fill="#050505"></path>
<path d="M94.4049 59.51C94.3349 59.84 94.3049 60.07 94.4649 60.07C94.6249 60.07 95.1749 59.57 95.4949 59.19V59.68C94.7349 60.48 93.9349 61.11 93.3749 61.11C92.9849 61.11 92.7749 60.78 92.7749 60.22C92.7749 59.95 92.7749 59.82 92.8749 59.28H92.8449C91.9049 60.25 91.0649 61.11 90.6149 61.11C90.2749 61.11 89.5849 60.69 89.5849 59.67C89.5849 58.7 89.9249 57.48 91.2049 56.21C92.4249 55.01 93.4649 54.72 95.3849 54.72L94.4049 59.51ZM93.6049 55.63C92.8449 55.63 92.3549 55.85 91.8949 56.31C91.3949 56.82 90.9749 57.87 90.9749 58.72C90.9749 59.33 91.2149 59.74 91.5849 59.74C91.9249 59.74 92.3849 59.28 92.9949 58.66L93.6049 55.63Z" fill="#050505"></path>
<path d="M99.1249 59.74C99.0649 60.01 99.1949 60.22 99.3949 60.22C99.5949 60.22 100.105 59.83 100.535 59.34L100.805 59.62C100.035 60.5 99.0249 61.11 98.2949 61.11C97.7449 61.11 97.3549 60.68 97.5249 59.85L98.4049 55.56H97.6749L97.7349 55.23C98.7149 54.9 99.5449 54.12 100.425 52.9H100.815C100.535 53.5 100.335 54.07 100.135 54.88H101.305L101.175 55.57H100.005L99.1449 59.76L99.1249 59.74Z" fill="#050505"></path>
<path d="M117.675 58.4C117.575 59.14 117.255 60.1 116.885 60.99L116.845 61.08C116.725 61.04 116.595 61.02 116.465 61C116.345 60.97 116.205 60.97 116.045 60.97C115.695 60.97 115.315 61.01 114.915 61.06C114.525 61.1 114.105 61.15 113.655 61.15C111.915 61.15 110.715 60.56 109.975 59.76C109.235 58.95 108.905 57.94 108.905 57.04C108.905 55.74 109.425 54.66 110.335 53.87C111.235 53.09 112.525 52.65 114.035 52.65C115.425 52.65 116.195 53.04 116.525 53.04C116.645 53.04 116.705 52.99 116.765 52.86H117.245L117.365 55.58H116.755C116.615 54.92 116.285 54.37 115.835 53.99C115.375 53.61 114.805 53.41 114.155 53.41C112.425 53.41 111.235 54.83 111.235 56.85C111.235 58.97 112.475 60.42 114.295 60.42C115.515 60.42 116.455 59.76 117.085 58.42H117.695L117.675 58.4Z" fill="#050505"></path>
<path d="M127.885 54.76C127.885 53.73 127.675 53.5 126.795 53.47V52.86H131.205V53.47C130.255 53.5 130.075 53.73 130.075 54.59V59.06C130.075 59.97 130.175 60.33 131.205 60.35V60.96H126.795V60.35C127.645 60.31 127.885 60.1 127.885 59.09V57.2H123.975V59.13C123.975 59.92 124.065 60.33 125.105 60.35V60.96H120.645V60.35C121.545 60.31 121.795 60.16 121.795 59.09V54.73C121.795 53.69 121.505 53.48 120.645 53.48V52.87H125.105V53.48C124.235 53.53 123.975 53.65 123.975 54.72V56.4H127.885V54.76Z" fill="#050505"></path>
<path d="M142.985 60.95H138.255V60.34C139.145 60.34 139.455 60.24 139.455 59.9C139.455 59.73 139.365 59.42 139.185 58.94L138.885 58.17H136.025L135.785 58.86C135.605 59.39 135.495 59.76 135.495 59.86C135.495 60.21 135.925 60.34 136.645 60.34V60.95H133.295V60.34C134.255 60.34 134.375 60.12 134.845 58.76L136.875 52.93L136.755 52.64H139.095L141.465 58.8C141.935 60.01 142.225 60.3 142.975 60.34V60.95H142.985ZM137.395 54.27L136.315 57.36H138.595L137.395 54.27Z" fill="#050505"></path>
<path d="M146.425 55.08C146.425 53.69 146.375 53.53 145.265 53.47V52.86C145.985 52.82 146.945 52.76 147.825 52.72C148.695 52.68 149.425 52.65 149.625 52.65C151.825 52.65 153.265 53.54 153.265 55.18C153.265 56.29 152.505 57.73 150.025 57.73C149.605 57.73 148.985 57.67 148.605 57.59V59.32C148.605 60.09 148.835 60.35 150.075 60.35V60.96H145.255V60.35C146.185 60.35 146.415 60.09 146.415 59.09V55.09L146.425 55.08ZM148.605 56.94C148.815 56.99 149.005 57 149.215 57C150.295 57 150.945 56.28 150.945 55.1C150.945 53.92 150.335 53.27 149.335 53.27C149.075 53.27 148.815 53.3 148.605 53.36V56.94Z" fill="#050505"></path>
<path d="M163.405 52.85L163.525 54.79H162.915C162.795 53.91 162.605 53.66 161.965 53.66H159.415V56.5H161.095C162.025 56.5 162.265 56.31 162.265 55.51H162.875V58.23H162.265C162.265 57.5 162.055 57.31 161.115 57.31H159.425V59.41C159.425 60.1 159.505 60.15 160.205 60.15H161.715C162.855 60.15 163.145 59.66 163.345 58.8H163.955L163.785 60.96H155.845V60.35C157.025 60.35 157.235 60.08 157.235 59.15V54.67C157.235 53.56 156.855 53.47 155.935 53.47V52.86H163.415L163.405 52.85Z" fill="#050505"></path>
<path d="M171.935 52.85V53.46C170.825 53.46 170.605 53.67 170.605 54.7V59.22C170.605 60.02 170.695 60.15 171.565 60.15H172.555C173.345 60.15 173.625 60.12 174.715 58.6H175.325L174.335 60.96H167.135V60.35C168.265 60.35 168.405 60.01 168.405 59.09V54.71C168.405 53.77 168.255 53.47 167.135 53.47V52.86H171.925L171.935 52.85Z" fill="#050505"></path>
<path d="M190.265 54.76C190.265 53.73 190.055 53.5 189.175 53.47V52.86H193.585V53.47C192.635 53.5 192.455 53.73 192.455 54.59V59.06C192.455 59.97 192.555 60.33 193.585 60.35V60.96H189.175V60.35C190.025 60.31 190.265 60.1 190.265 59.09V57.2H186.365V59.13C186.365 59.92 186.455 60.33 187.495 60.35V60.96H183.035V60.35C183.935 60.31 184.185 60.16 184.185 59.09V54.73C184.185 53.69 183.895 53.48 183.035 53.48V52.87H187.495V53.48C186.625 53.53 186.365 53.65 186.365 54.72V56.4H190.265V54.76Z" fill="#050505"></path>
<path d="M197.085 60.34C198.005 60.34 198.205 60 198.205 59.17V54.72C198.205 53.81 198.025 53.47 197.085 53.47V52.86H201.575V53.47C200.535 53.47 200.385 53.81 200.385 54.72V59.1C200.385 59.91 200.465 60.35 201.575 60.35V60.96H197.085V60.34Z" fill="#050505"></path>
<path d="M209.415 52.85V53.46C208.315 53.46 208.085 53.67 208.085 54.7V59.22C208.085 60.02 208.175 60.15 209.045 60.15H210.035C210.825 60.15 211.105 60.12 212.195 58.6H212.805L211.815 60.96H204.615V60.35C205.745 60.35 205.885 60.01 205.885 59.09V54.71C205.885 53.77 205.745 53.47 204.615 53.47V52.86H209.405L209.415 52.85Z" fill="#050505"></path>
<path d="M219.125 52.85V53.46C218.015 53.46 217.795 53.67 217.795 54.7V59.22C217.795 60.02 217.885 60.15 218.755 60.15H219.745C220.535 60.15 220.815 60.12 221.905 58.6H222.515L221.525 60.96H214.325V60.35C215.455 60.35 215.595 60.01 215.595 59.09V54.71C215.595 53.77 215.455 53.47 214.325 53.47V52.86H219.115L219.125 52.85Z" fill="#050505"></path>
</svg>
